<?xml version="1.0" encoding="utf-8"?>
<!-- Generator: Adobe Illustrator 25.2.1, SVG Export Plug-In . SVG Version: 6.00 Build 0)  -->
<svg version="1.1" id="Layer_1" xmlns="http://www.w3.org/2000/svg" xmlns:xlink="http://www.w3.org/1999/xlink" x="0px" y="0px"
	 viewBox="0 0 492.48 397.817" enable-background="new 0 0 492.48 397.817" xml:space="preserve">
<g>
	<defs>
		<rect id="SVGID_1_" x="919.689" y="-700.868" width="1920" height="1506.094"/>
	</defs>
	<clipPath id="SVGID_2_">
		<use xlink:href="#SVGID_1_"  overflow="visible"/>
	</clipPath>
	<g clip-path="url(#SVGID_2_)">
		
			<line opacity="0.3" fill="#E0E0E0" stroke="#B27826" stroke-width="3" stroke-miterlimit="10" x1="1913.645" y1="2193.68" x2="-89.675" y2="379.132"/>
		
			<line opacity="0.3" fill="#E0E0E0" stroke="#B27826" stroke-width="3" stroke-miterlimit="10" x1="1932.645" y1="2175.68" x2="-70.675" y2="361.132"/>
		
			<line opacity="0.3" fill="#E0E0E0" stroke="#B27826" stroke-width="3" stroke-miterlimit="10" x1="1951.645" y1="2157.68" x2="-51.675" y2="343.132"/>
		
			<line opacity="0.3" fill="#E0E0E0" stroke="#B27826" stroke-width="3" stroke-miterlimit="10" x1="1970.645" y1="2139.68" x2="-32.675" y2="325.132"/>
		
			<line opacity="0.3" fill="#E0E0E0" stroke="#B27826" stroke-width="3" stroke-miterlimit="10" x1="1989.645" y1="2121.68" x2="-13.675" y2="307.132"/>
		
			<line opacity="0.3" fill="#E0E0E0" stroke="#B27826" stroke-width="3" stroke-miterlimit="10" x1="2008.645" y1="2103.68" x2="5.325" y2="289.132"/>
		
			<line opacity="0.3" fill="#E0E0E0" stroke="#B27826" stroke-width="3" stroke-miterlimit="10" x1="2027.645" y1="2085.68" x2="24.325" y2="271.132"/>
		
			<line opacity="0.3" fill="#E0E0E0" stroke="#B27826" stroke-width="3" stroke-miterlimit="10" x1="2046.645" y1="2067.68" x2="43.325" y2="253.132"/>
		
			<line opacity="0.3" fill="#E0E0E0" stroke="#B27826" stroke-width="3" stroke-miterlimit="10" x1="2065.645" y1="2049.68" x2="62.325" y2="235.132"/>
		
			<line opacity="0.3" fill="#E0E0E0" stroke="#B27826" stroke-width="3" stroke-miterlimit="10" x1="2084.645" y1="2031.68" x2="81.325" y2="217.132"/>
		
			<line opacity="0.3" fill="#E0E0E0" stroke="#B27826" stroke-width="3" stroke-miterlimit="10" x1="2103.645" y1="2013.68" x2="100.325" y2="199.132"/>
		
			<line opacity="0.3" fill="#E0E0E0" stroke="#B27826" stroke-width="3" stroke-miterlimit="10" x1="2122.645" y1="1995.68" x2="119.325" y2="181.132"/>
		
			<line opacity="0.3" fill="#E0E0E0" stroke="#B27826" stroke-width="3" stroke-miterlimit="10" x1="2141.645" y1="1977.68" x2="138.325" y2="163.132"/>
		
			<line opacity="0.3" fill="#E0E0E0" stroke="#B27826" stroke-width="3" stroke-miterlimit="10" x1="2160.645" y1="1959.68" x2="157.325" y2="145.132"/>
		
			<line opacity="0.3" fill="#E0E0E0" stroke="#B27826" stroke-width="3" stroke-miterlimit="10" x1="2179.645" y1="1941.68" x2="176.325" y2="127.132"/>
		
			<line opacity="0.3" fill="#E0E0E0" stroke="#B27826" stroke-width="3" stroke-miterlimit="10" x1="2198.645" y1="1923.68" x2="195.325" y2="109.132"/>
		
			<line opacity="0.3" fill="#E0E0E0" stroke="#B27826" stroke-width="3" stroke-miterlimit="10" x1="2217.645" y1="1905.68" x2="214.325" y2="91.132"/>
		
			<line opacity="0.3" fill="#E0E0E0" stroke="#B27826" stroke-width="3" stroke-miterlimit="10" x1="2236.645" y1="1887.68" x2="233.325" y2="73.132"/>
		
			<line opacity="0.3" fill="#E0E0E0" stroke="#B27826" stroke-width="3" stroke-miterlimit="10" x1="2255.645" y1="1869.68" x2="252.325" y2="55.132"/>
		
			<line opacity="0.3" fill="#E0E0E0" stroke="#B27826" stroke-width="3" stroke-miterlimit="10" x1="2274.645" y1="1851.68" x2="271.325" y2="37.132"/>
		
			<line opacity="0.3" fill="#E0E0E0" stroke="#B27826" stroke-width="3" stroke-miterlimit="10" x1="2293.645" y1="1833.68" x2="290.325" y2="19.132"/>
		
			<line opacity="0.3" fill="#E0E0E0" stroke="#B27826" stroke-width="3" stroke-miterlimit="10" x1="2312.645" y1="1815.68" x2="309.325" y2="1.132"/>
		
			<line opacity="0.3" fill="#E0E0E0" stroke="#B27826" stroke-width="3" stroke-miterlimit="10" x1="2331.645" y1="1797.68" x2="328.325" y2="-16.868"/>
		
			<line opacity="0.3" fill="#E0E0E0" stroke="#B27826" stroke-width="3" stroke-miterlimit="10" x1="2350.645" y1="1779.68" x2="347.325" y2="-34.868"/>
		
			<line opacity="0.3" fill="#E0E0E0" stroke="#B27826" stroke-width="3" stroke-miterlimit="10" x1="2369.645" y1="1761.68" x2="366.325" y2="-52.868"/>
		
			<line opacity="0.3" fill="#E0E0E0" stroke="#B27826" stroke-width="3" stroke-miterlimit="10" x1="2388.645" y1="1743.68" x2="385.325" y2="-70.868"/>
		
			<line opacity="0.3" fill="#E0E0E0" stroke="#B27826" stroke-width="3" stroke-miterlimit="10" x1="2407.645" y1="1725.68" x2="404.325" y2="-88.868"/>
		
			<line opacity="0.3" fill="#E0E0E0" stroke="#B27826" stroke-width="3" stroke-miterlimit="10" x1="2426.645" y1="1707.68" x2="423.325" y2="-106.868"/>
		
			<line opacity="0.3" fill="#E0E0E0" stroke="#B27826" stroke-width="3" stroke-miterlimit="10" x1="2445.645" y1="1689.68" x2="442.325" y2="-124.868"/>
		
			<line opacity="0.3" fill="#E0E0E0" stroke="#B27826" stroke-width="3" stroke-miterlimit="10" x1="2464.645" y1="1671.68" x2="461.325" y2="-142.868"/>
		
			<line opacity="0.3" fill="#E0E0E0" stroke="#B27826" stroke-width="3" stroke-miterlimit="10" x1="2483.645" y1="1653.68" x2="480.325" y2="-160.868"/>
	</g>
</g>
<g>
	<polygon fill="#FFFFFF" points="94.349,117.892 243.261,29.619 392.306,118.067 392.66,171.264 417.226,170.555 417.226,269.872 
		392.484,266.693 392.306,294.44 243.842,358.946 93.994,294.44 94.082,267.224 69.168,269.344 69.168,170.866 94.084,171.264 	"/>
	<g>
		<g>
			<g>
				<polygon fill="#191919" points="113.472,251.732 82.656,255.511 82.525,181.591 112.295,181.591 112.424,194.554 97.56,195.018 
					97.607,209.577 111.857,208.838 111.836,222.005 97.672,223.049 97.672,239.608 113.472,238.432 				"/>
				<path fill="#191919" d="M118.849,251.281v-69.689h22.295l6.182,38.283l1.211,0.016l6.244-38.299h22.559v65.235l-13.637,0.611
					l0.129-45.5l-0.918,0.045l-8.262,46.264l-13.115,0.853l-8.521-46.158c0,0-0.539-1.08-1.051-0.161l-0.176,47.192L118.849,251.281
					z"/>
				<path fill="#191919" d="M206.584,181.591H184.42v64.58l14.426-0.522v-25.873l9.006-0.023
					c11.367-0.346,12.457-12.748,12.457-12.748l0.236-5.213C221.857,181.591,206.584,181.591,206.584,181.591z M205.797,204.121
					c0,0-0.131,3.734-2.951,4.324c-2.818,0.589-3.934,0-3.934,0v-15.523c0,0,2.686-0.123,3.572,0
					c1.154,0.158,3.049,0.852,3.312,3.274C206.058,198.62,205.797,204.121,205.797,204.121z"/>
				<path fill="#191919" d="M245.965,181.546h-5.154c-8.799,0-15.562,5.327-15.562,13.857v34.929c0,8.53,7.137,15.447,15.936,15.447
					h5.158c8.803,0,16.088-6.917,16.088-15.447v-34.929C262.429,186.873,254.761,181.546,245.965,181.546z M246.974,231.239
					c0,1.88-1.525,3.403-3.406,3.403c-1.889,0-3.414-1.523-3.414-3.403v-34.965c0-1.882,1.525-3.405,3.414-3.405
					c1.881,0,3.406,1.523,3.406,3.405V231.239z"/>
				<polygon fill="#191919" points="268.787,182.464 268.611,246.301 298.951,247.438 298.951,236.871 283.386,236.218 
					283.334,182.464 				"/>
				<polygon fill="#191919" points="303.056,247.96 316.959,248.401 317.002,182.815 302.754,182.815 				"/>
				<path fill="#191919" d="M345.548,222.725l-3.771-0.133v-11.744l17.935,0.697l0.438,40.523l-5.771-0.436l-2.621-5.637
					l-1.139,0.066c0,0-3.322,5.74-12.24,4.52s-14.164-5.85-15.299-16.506v-37.726c0,0,1.31-12.753,13.986-13.887
					c0,0,3.125-0.136,4.162-0.136c1.084,0,4.32,0.136,4.32,0.136s7.17,0.088,10.756,6.024c3.582,5.94,3.846,17.643,3.846,17.643
					l-14.426-0.438l-0.35-8.119c0,0-0.701-3.145-3.453-3.145c-2.756,0-4.33,0.655-4.459,4.19
					c-0.133,3.539-0.045,32.838-0.045,32.838s-0.307,6.68,4.197,6.922c4.5,0.238,3.844-4.061,3.844-4.061L345.548,222.725z"/>
				<path fill="#191919" d="M396.431,182.815l-24.916-0.351l-7.344,70.04l14.074,1.528l1.223-11.529l9.27,0.876l1.18,12.225
					l13.9,1.965L396.431,182.815z M380.65,231.414l2.498-36.725l1-0.072l3.496,37.1L380.65,231.414z"/>
			</g>
			<g>
				<polygon fill="#191919" points="101.906,267.664 101.595,289.136 171.933,317.944 324.841,302.391 				"/>
			</g>
			<g>
				<polygon fill="#191919" points="355.461,300.273 383.994,287.812 384.709,266.518 300.258,264.177 174.672,269.411 
					174.672,270.271 				"/>
			</g>
			<g>
				<polygon fill="#191919" points="102.304,169.671 102.304,123.37 137.248,102.828 199.291,101.014 152.051,94.477 
					243.211,41.403 314.836,83.256 297.508,84.713 327.064,90.047 384.222,123.15 384.222,169.143 243.842,129.82 				"/>
			</g>
		</g>
	</g>
	<g>
		<polygon fill="#E88400" points="294.447,127.577 298.269,139.337 310.634,139.337 300.631,146.607 304.451,158.368 
			294.447,151.101 284.441,158.368 288.265,146.607 278.259,139.337 290.625,139.337 		"/>
		<polygon fill="#E88400" points="191.992,127.577 195.814,139.337 208.177,139.337 198.173,146.607 201.996,158.368 
			191.992,151.101 181.986,158.368 185.808,146.607 175.804,139.337 188.168,139.337 		"/>
		<polygon fill="#E88400" points="244.252,108.204 249.619,124.719 266.976,124.719 252.933,134.921 258.298,151.432 
			244.252,141.23 230.207,151.432 235.574,134.921 221.525,124.719 238.885,124.719 		"/>
	</g>
</g>
</svg>
