<?xml version="1.0" encoding="utf-8"?>
<!-- Generator: Adobe Illustrator 16.0.0, SVG Export Plug-In . SVG Version: 6.00 Build 0)  -->
<!DOCTYPE svg PUBLIC "-//W3C//DTD SVG 1.1//EN" "http://www.w3.org/Graphics/SVG/1.1/DTD/svg11.dtd">
<svg version="1.1" id="Layer_1" xmlns="http://www.w3.org/2000/svg" xmlns:xlink="http://www.w3.org/1999/xlink" x="0px" y="0px"
	 width="350px" height="327.035px" viewBox="0 0 350 327.035" enable-background="new 0 0 350 327.035" xml:space="preserve">
<g>
	<polygon fill="#C28F2C" points="34.533,89.078 175.754,5.365 317.102,89.247 317.438,135.127 340.73,134.455 340.73,237.773 
		317.266,234.758 317.102,256.507 176.301,317.678 34.199,256.507 34.279,235.261 10.651,237.273 10.651,134.75 34.281,135.127 	"/>
	<polygon fill="#111111" points="41.754,92.782 175.75,13.351 309.87,92.941 310.188,140.809 332.289,140.173 332.289,229.542 
		310.027,226.684 309.87,251.648 176.27,309.691 41.438,251.648 41.51,227.156 19.094,229.066 19.094,140.45 41.513,140.809 	"/>
	<g>
		<g>
			<polygon fill="#FFFFFF" points="58.963,213.217 31.23,216.619 31.112,150.103 57.899,150.103 58.016,161.767 44.644,162.186 
				44.68,175.286 57.506,174.62 57.488,186.47 44.742,187.407 44.742,202.309 58.963,201.249 			"/>
			<path fill="#FFFFFF" d="M63.801,212.811v-62.708h20.06l5.561,34.448l1.09,0.018l5.621-34.465h20.299v58.702l-12.272,0.549
				l0.116-40.94l-0.824,0.039l-7.435,41.63l-11.805,0.768l-7.664-41.533c0,0-0.491-0.973-0.945-0.147l-0.16,42.466L63.801,212.811z"
				/>
			<path fill="#FFFFFF" d="M142.746,150.103h-19.943v58.112l12.976-0.472v-23.282l8.106-0.018
				c10.227-0.314,11.216-11.475,11.216-11.475l0.208-4.688C156.488,150.103,142.746,150.103,142.746,150.103z M142.038,170.377
				c0,0-0.118,3.357-2.657,3.889c-2.536,0.53-3.539,0-3.539,0v-13.968c0,0,2.42-0.107,3.213,0c1.039,0.142,2.746,0.767,2.983,2.946
				C142.277,165.426,142.038,170.377,142.038,170.377z"/>
			<path fill="#FFFFFF" d="M178.182,150.062h-4.637c-7.921,0-14.004,4.793-14.004,12.47v31.434c0,7.671,6.42,13.896,14.34,13.896
				h4.643c7.918,0,14.477-6.226,14.477-13.896v-31.434C192.999,154.854,186.1,150.062,178.182,150.062z M179.093,194.777
				c0,1.69-1.376,3.063-3.069,3.063c-1.692,0-3.067-1.373-3.067-3.063v-31.463c0-1.691,1.375-3.066,3.067-3.066
				c1.693,0,3.069,1.375,3.069,3.066V194.777z"/>
			<polygon fill="#FFFFFF" points="198.719,150.888 198.564,208.33 225.861,209.354 225.861,199.845 211.859,199.257 
				211.807,150.888 			"/>
			<polygon fill="#FFFFFF" points="229.561,209.826 242.064,210.22 242.105,151.203 229.283,151.203 			"/>
			<path fill="#FFFFFF" d="M267.793,187.115l-3.395-0.119v-10.568l16.136,0.631l0.395,36.465l-5.189-0.396l-2.362-5.071l-1.021,0.06
				c0,0-2.988,5.169-11.014,4.069c-8.023-1.104-12.748-5.27-13.769-14.854v-33.947c0,0,1.18-11.474,12.589-12.495
				c0,0,2.813-0.121,3.742-0.121c0.975,0,3.89,0.121,3.89,0.121s6.451,0.079,9.676,5.423c3.224,5.343,3.46,15.874,3.46,15.874
				l-12.978-0.392l-0.317-7.31c0,0-0.628-2.83-3.105-2.83c-2.48,0-3.896,0.589-4.014,3.771c-0.115,3.182-0.039,29.551-0.039,29.551
				s-0.272,6.01,3.776,6.226c4.052,0.215,3.462-3.656,3.462-3.656L267.793,187.115z"/>
			<path fill="#FFFFFF" d="M313.578,151.203l-22.423-0.315l-6.607,63.025l12.666,1.373l1.101-10.37l8.339,0.784l1.063,11
				l12.509,1.769L313.578,151.203z M299.38,194.934l2.243-33.043l0.904-0.067l3.146,33.388L299.38,194.934z"/>
		</g>
	</g>
	<g>
		<polygon fill="#C28F2C" points="48.553,227.557 48.274,246.875 111.562,272.799 249.158,258.804 		"/>
		<polygon fill="#C28F2C" points="276.71,256.898 302.385,245.686 303.03,226.521 227.035,224.415 114.032,229.125 114.032,229.9 		
			"/>
		<polygon fill="#C28F2C" points="48.908,139.377 48.908,97.714 80.354,79.227 136.183,77.597 93.676,71.712 175.703,23.956 
			240.154,61.614 224.563,62.927 251.158,67.729 302.591,97.516 302.591,138.9 176.27,103.517 		"/>
	</g>
	<polygon fill="#FFFFFF" points="221.809,125.202 208.9,134.583 213.832,119.406 200.922,110.028 216.876,110.028 221.809,94.852 
		226.736,110.028 242.698,110.028 229.783,119.406 234.718,134.583 	"/>
	<path fill="#111111" d="M221.809,101.498l3.438,10.584h11.131l-9.004,6.54l3.436,10.583l-9-6.541l-9.004,6.541l3.442-10.583
		l-9.003-6.54h11.126L221.809,101.498 M221.809,88.205l-3.904,12.023l-2.521,7.747h-8.14H194.6l10.229,7.429l6.586,4.786
		l-2.515,7.746l-3.906,12.021l10.229-7.429l6.586-4.787l6.588,4.787l10.227,7.429l-3.904-12.021l-2.517-7.746l6.586-4.784
		l10.233-7.431h-12.645h-8.148l-2.514-7.747L221.809,88.205L221.809,88.205z"/>
	<polygon fill="#FFFFFF" points="129.613,125.202 116.706,134.583 121.638,119.406 108.728,110.028 124.682,110.028 129.613,94.854 
		134.543,110.028 150.502,110.028 137.594,119.406 142.523,134.583 	"/>
	<path fill="#111111" d="M129.613,101.498l3.443,10.584h11.123l-9.001,6.54l3.438,10.583l-9.004-6.541l-9.003,6.541l3.442-10.583
		l-9.003-6.54h11.124L129.613,101.498 M129.613,88.212l-3.904,12.017l-2.517,7.747h-8.143h-12.642l10.227,7.429l6.588,4.786
		l-2.517,7.746l-3.907,12.021l10.227-7.429l6.588-4.787l6.591,4.787l10.224,7.429l-3.904-12.021l-2.517-7.746l6.589-4.786
		l10.227-7.429H144.18h-8.143l-2.514-7.747L129.613,88.212L129.613,88.212z"/>
	<polygon fill="#FFFFFF" points="176.643,116.321 160.096,128.341 166.415,108.891 149.869,96.871 170.319,96.871 176.643,77.42 
		182.961,96.871 203.412,96.871 186.863,108.891 193.186,128.341 	"/>
	<path fill="#111111" d="M176.643,84.066l4.828,14.858h15.619l-12.637,9.182l4.824,14.857l-12.637-9.18l-12.64,9.18l4.83-14.857
		l-12.642-9.182h15.62L176.643,84.066 M176.643,70.775l-3.908,12.021l-3.902,12.021H156.19h-12.642l10.229,7.433l10.225,7.427
		l-3.906,12.02l-3.905,12.02l10.225-7.427l10.227-7.43l10.225,7.429l10.227,7.431l-3.906-12.021l-3.906-12.02l10.225-7.427
		l10.227-7.433h-12.64h-12.637l-3.907-12.021L176.643,70.775L176.643,70.775z"/>
</g>
</svg>
