<?xml version="1.0" encoding="utf-8"?>
<!-- Generator: Adobe Illustrator 16.0.0, SVG Export Plug-In . SVG Version: 6.00 Build 0)  -->
<!DOCTYPE svg PUBLIC "-//W3C//DTD SVG 1.1//EN" "http://www.w3.org/Graphics/SVG/1.1/DTD/svg11.dtd">
<svg version="1.1" id="Layer_1" xmlns="http://www.w3.org/2000/svg" xmlns:xlink="http://www.w3.org/1999/xlink" x="0px" y="0px"
	 width="385.742px" height="425.979px" viewBox="0 0 385.742 425.979" enable-background="new 0 0 385.742 425.979"
	 xml:space="preserve">
<path fill-rule="evenodd" clip-rule="evenodd" fill="none" d="M161.087,204.75c0,31.615,0.002,63.23-0.01,94.845
	c0,0.881-0.039,1.49,1.217,1.489c40.471-0.033,80.941-0.024,121.41-0.059c0.57-0.001,1.287-0.328,1.684-0.743
	c7.883-8.251,14.461-17.436,19.68-27.595c7.57-14.741,11.748-30.408,12.561-46.932c0.402-8.217-0.061-16.419-1.436-24.566
	c-1.91-11.323-5.373-22.127-10.49-32.392c-7.316-14.668-17.266-27.287-29.855-37.78c-20.648-17.208-44.49-26.404-71.264-27.988
	c-6.895-0.408-13.818-0.209-20.691,0.642c-7.254,0.897-14.391,2.368-21.396,4.479c-1.137,0.342-1.436,0.833-1.434,1.975
	C161.093,141.667,161.087,173.209,161.087,204.75z"/>
<path fill-rule="evenodd" clip-rule="evenodd" fill="none" d="M161.132,93.513c0.16,0.03,0.266,0.076,0.365,0.063
	c0.215-0.029,0.43-0.08,0.639-0.138c11.611-3.193,23.453-4.763,35.48-4.824c4.049-0.021,8.102,0.321,12.146,0.56
	c6.17,0.363,12.252,1.388,18.273,2.732c12.484,2.789,24.357,7.234,35.553,13.437c22.377,12.396,39.941,29.676,52.416,52.025
	c10.832,19.407,16.117,40.309,16.277,62.504c0.027,3.864-0.326,7.734-0.572,11.597c-0.418,6.499-1.555,12.889-3.1,19.205
	c-4.98,20.366-14.414,38.438-28.035,54.354c-0.434,0.506-0.76,1.168-0.943,1.812c-3.238,11.264-6.445,22.535-9.66,33.805
	c-0.705,2.479-1.408,4.958-2.178,7.661c0.443-0.295,0.693-0.438,0.916-0.613c5.125-4.012,10.459-7.785,15.326-12.087
	c15.906-14.058,28.402-30.731,37.457-49.954c5.285-11.222,9.262-22.892,11.516-35.091c1.072-5.801,1.793-11.677,2.42-17.546
	c0.443-4.134,0.697-8.319,0.605-12.473c-0.125-5.726-0.412-11.471-1.08-17.154c-0.693-5.892-1.686-11.774-2.971-17.567
	c-2.951-13.308-7.834-25.924-14.313-37.92c-9.213-17.06-21.229-31.865-35.936-44.473c-12.135-10.403-25.57-18.748-40.25-25.097
	c-17.754-7.679-36.316-11.895-55.602-12.846c-8.031-0.396-16.104-0.365-24.094,0.673c-6.502,0.845-12.945,2.135-19.42,3.188
	c-0.979,0.159-1.313,0.553-1.307,1.569c0.043,7.208,0.023,14.417,0.025,21.626C161.089,92.863,161.116,93.186,161.132,93.513z"/>
<g>
	<path fill-rule="evenodd" clip-rule="evenodd" fill="#C28F2C" d="M263.319,381.08c-68.945,0-137.891,0-206.834,0
		c0.178-0.318,0.375-0.627,0.535-0.954c5.344-10.896,10.693-21.79,16.004-32.702c0.318-0.655,0.451-1.465,0.451-2.203
		c0.02-88.513,0.02-177.025-0.004-265.538c0-0.804-0.197-1.678-0.547-2.4c-3.389-7.011-6.82-13.999-10.256-20.986
		c-2.047-4.165-4.121-8.317-6.184-12.475c30.008,0,60.016,0,90.023,0c-0.033,0.581-0.098,1.161-0.098,1.743
		c-0.004,89.29-0.004,178.58,0.002,267.871c0,2.146-0.361,2.066,2.057,2.066c43.912,0,87.826,0,131.738,0c0.498,0,0.996,0,1.613,0
		c-0.127,0.522-0.201,0.872-0.299,1.214c-5.613,19.698-11.232,39.395-16.838,59.094C264.187,377.555,263.772,379.322,263.319,381.08
		z"/>
	<path fill-rule="evenodd" clip-rule="evenodd" fill="#C28F2C" d="M40.017,219.257c0.08-0.462,0.203-0.922,0.232-1.388
		c0.334-5.137,0.463-10.294,1.02-15.405c1-9.196,2.963-18.214,5.709-27.054c2.879-9.272,6.584-18.202,11.166-26.765
		c0.172-0.319,0.344-0.639,0.619-1.148c0,48.771,0,97.33,0,146.172c-1.074-2.08-2.082-3.94-3.008-5.839
		c-5.885-12.045-10.209-24.632-12.689-37.803c-1.037-5.509-1.656-11.105-2.273-16.684c-0.371-3.37-0.365-6.781-0.545-10.174
		c-0.023-0.429-0.15-0.852-0.23-1.278C40.017,221.014,40.017,220.136,40.017,219.257z"/>
	<path fill-rule="evenodd" clip-rule="evenodd" fill="#C28F2C" d="M161.087,204.75c0-31.541,0.006-63.083-0.025-94.625
		c-0.002-1.142,0.297-1.633,1.434-1.975c7.006-2.111,14.143-3.582,21.396-4.479c6.873-0.851,13.797-1.05,20.691-0.642
		c26.773,1.584,50.615,10.78,71.264,27.988c12.59,10.493,22.539,23.112,29.855,37.78c5.117,10.265,8.58,21.068,10.49,32.392
		c1.375,8.147,1.838,16.35,1.436,24.566c-0.813,16.523-4.99,32.19-12.561,46.932c-5.219,10.159-11.797,19.344-19.68,27.595
		c-0.396,0.415-1.113,0.742-1.684,0.743c-40.469,0.034-80.939,0.025-121.41,0.059c-1.256,0.001-1.217-0.608-1.217-1.489
		C161.089,267.98,161.087,236.365,161.087,204.75z"/>
	<path fill-rule="evenodd" clip-rule="evenodd" fill="#C28F2C" d="M161.132,93.513c-0.016-0.327-0.043-0.649-0.043-0.972
		c-0.002-7.209,0.018-14.418-0.025-21.626c-0.006-1.017,0.328-1.41,1.307-1.569c6.475-1.054,12.918-2.344,19.42-3.188
		c7.99-1.038,16.063-1.068,24.094-0.673c19.285,0.951,37.848,5.167,55.602,12.846c14.68,6.349,28.115,14.693,40.25,25.097
		c14.707,12.607,26.723,27.413,35.936,44.473c6.479,11.996,11.361,24.612,14.313,37.92c1.285,5.793,2.277,11.676,2.971,17.567
		c0.668,5.684,0.955,11.429,1.08,17.154c0.092,4.153-0.162,8.339-0.605,12.473c-0.627,5.869-1.348,11.745-2.42,17.546
		c-2.254,12.199-6.23,23.869-11.516,35.091c-9.055,19.223-21.551,35.896-37.457,49.954c-4.867,4.302-10.201,8.075-15.326,12.087
		c-0.223,0.176-0.473,0.318-0.916,0.613c0.77-2.703,1.473-5.183,2.178-7.661c3.215-11.27,6.422-22.541,9.66-33.805
		c0.184-0.644,0.51-1.306,0.943-1.812c13.621-15.915,23.055-33.987,28.035-54.354c1.545-6.316,2.682-12.706,3.1-19.205
		c0.246-3.862,0.6-7.732,0.572-11.597c-0.16-22.195-5.445-43.097-16.277-62.504c-12.475-22.35-30.039-39.63-52.416-52.025
		c-11.195-6.202-23.068-10.647-35.553-13.437c-6.021-1.345-12.104-2.369-18.273-2.732c-4.045-0.238-8.098-0.58-12.146-0.56
		c-12.027,0.062-23.869,1.631-35.48,4.824c-0.209,0.058-0.424,0.108-0.639,0.138C161.397,93.589,161.292,93.543,161.132,93.513z"/>
</g>
</svg>
