<?xml version="1.0" encoding="utf-8"?>
<!-- Generator: Adobe Illustrator 16.0.0, SVG Export Plug-In . SVG Version: 6.00 Build 0)  -->
<!DOCTYPE svg PUBLIC "-//W3C//DTD SVG 1.1//EN" "http://www.w3.org/Graphics/SVG/1.1/DTD/svg11.dtd">
<svg version="1.1" id="Layer_1" xmlns="http://www.w3.org/2000/svg" xmlns:xlink="http://www.w3.org/1999/xlink" x="0px" y="0px"
	 width="726.391px" height="673.348px" viewBox="0 0 726.391 673.348" enable-background="new 0 0 726.391 673.348"
	 xml:space="preserve">
<g>
	<polygon fill="none" stroke="#000000" stroke-width="0.5" points="70.976,183 365.475,9 659.643,183.333 659.643,286 707.977,286 
		707.977,487.334 660.309,482.667 660.309,534.667 366.143,663 70.976,535 70.976,484 22.226,488.25 22.226,286 70.976,286.25 	"/>
	
		<linearGradient id="SVGID_1_" gradientUnits="userSpaceOnUse" x1="-211.6968" y1="877.0273" x2="458.8794" y2="877.0273" gradientTransform="matrix(1 0 0 -1 242.3398 1213.3867)">
		<stop  offset="0" style="stop-color:#000000"/>
		<stop  offset="0.7796" style="stop-color:#1B1A23"/>
	</linearGradient>
	<polygon fill="url(#SVGID_1_)" points="78.982,187.165 365.444,17.094 651.624,187.489 652.708,294 699.725,294 701.219,479.79 
		652.85,476.125 652.274,529.259 365.93,655.625 78.982,529.583 77.851,475.625 30.643,479.667 30.643,293.25 78.393,293.208 	"/>
	
		<linearGradient id="SVGID_2_" gradientUnits="userSpaceOnUse" x1="-144.6968" y1="1048.7207" x2="391.6353" y2="1048.7207" gradientTransform="matrix(1 0 0 -1 242.3398 1213.3867)">
		<stop  offset="0" style="stop-color:#1F1D2A"/>
		<stop  offset="1" style="stop-color:#352263"/>
	</linearGradient>
	<path fill="url(#SVGID_2_)" d="M97.643,287.333V198l68.666-38.333l116.667-4l-89.667-12L365.93,42l134.879,79.833l-33,2.5
		l55.834,10L633.975,199v88.333L488.475,246l31.25-23l-42-0.5L463.809,182l-14.334,40.833l-44.875,0.542
		c0,0-2.873-0.917-2.998-1.958s0.416-1.792,1.166-2.292s32.875-24.292,32.875-24.292l-52-0.167L367.475,146l-16.5,48.167
		l-51.75,0.583l34.417,25.75c0,0-6.104,2.313-6.729,2.188s-45.271-0.521-45.271-0.521L268.226,181.5l-14.375,40.875l-43.375,0.25
		L241.851,246L97.643,287.333z"/>
	
		<linearGradient id="SVGID_3_" gradientUnits="userSpaceOnUse" x1="-144.8638" y1="686.3457" x2="277.6353" y2="686.3457" gradientTransform="matrix(1 0 0 -1 242.3398 1213.3867)">
		<stop  offset="0" style="stop-color:#DEDFE1"/>
		<stop  offset="1" style="stop-color:#E7E6E7"/>
	</linearGradient>
	<polygon fill="url(#SVGID_3_)" points="97.476,478.75 97.476,520.25 230.309,575.333 519.975,546.25 	"/>
	
		<linearGradient id="SVGID_4_" gradientUnits="userSpaceOnUse" x1="15.1362" y1="707.0527" x2="391.6353" y2="707.0527" gradientTransform="matrix(1 0 0 -1 242.3398 1213.3867)">
		<stop  offset="0" style="stop-color:#DFDFE2"/>
		<stop  offset="1" style="stop-color:#FFFEFD"/>
	</linearGradient>
	<polygon fill="url(#SVGID_4_)" points="579.309,542.667 633.975,518.334 633.975,475.667 482.309,470.001 257.476,481 
		257.476,488.5 	"/>
	<polygon fill="#FFFFFF" points="267.971,212.895 274.295,232.359 294.76,232.359 278.203,244.388 284.527,263.851 267.971,251.822 
		251.414,263.851 257.738,244.388 241.182,232.359 261.646,232.359 	"/>
	<polygon fill="#FFFFFF" points="463.633,212.895 469.958,232.359 490.422,232.359 473.866,244.388 480.19,263.851 463.633,251.822 
		447.077,263.851 453.401,244.388 436.844,232.359 457.309,232.359 	"/>
	<polygon fill="#FFFFFF" points="367.526,176.417 376.581,204.284 405.881,204.284 382.176,221.506 391.231,249.373 
		367.526,232.151 343.82,249.373 352.875,221.506 329.17,204.284 358.471,204.284 	"/>
	<g>
		<polygon fill="#FFFFFF" points="118.226,446 59.476,453.25 59.226,311.5 115.976,311.5 116.226,336.359 87.893,337.25 
			87.976,365.167 115.143,363.75 115.101,389 88.101,391 88.101,422.75 118.226,420.5 		"/>
		<path fill="#FFFFFF" d="M128.476,444.5v-133h42.5l11.781,73.063l2.313,0.031l11.906-73.094h43v124.501l-26,1.166l0.25-86.834
			l-1.75,0.084l-15.75,88.292l-25,1.625l-16.25-88.084c0,0-1.031-2.063-2-0.313L153.143,442L128.476,444.5z"/>
		<path fill="#FFFFFF" d="M295.726,311.5h-42.25v123.25l27.5-1v-49.375l17.167-0.041c21.666-0.666,23.75-24.333,23.75-24.333
			L321.976,350C325.976,311.25,295.726,311.5,295.726,311.5z M294.226,354.5c0,0-0.25,7.125-5.625,8.25s-7.5,0-7.5,0v-29.625
			c0,0,5.121-0.231,6.808,0c2.201,0.302,5.817,1.625,6.317,6.25S294.226,354.5,294.226,354.5z"/>
		<path fill="#FFFFFF" d="M370.799,311.417h-9.825c-16.776,0-29.666,13.198-29.666,29.479v63.625
			c0,16.279,13.603,29.479,30.379,29.479h9.833c16.777,0,29.658-13.198,29.658-29.479v-63.625
			C401.178,324.615,387.577,311.417,370.799,311.417z M372.725,406.25c0,3.59-2.908,6.5-6.5,6.5c-3.589,0-6.5-2.91-6.5-6.5v-66.729
			c0-3.589,2.91-6.5,6.5-6.5c3.592,0,6.5,2.91,6.5,6.5V406.25z"/>
		<polygon fill="#FFFFFF" points="414.309,313.167 413.975,435 471.809,437.166 471.809,417 442.143,415.751 442.038,313.167 		"/>
		<polygon fill="#FFFFFF" points="479.643,438.167 506.143,439.001 506.225,313.833 479.059,313.833 		"/>
		<path fill="#FFFFFF" d="M560.643,390.001l-7.188-0.251v-22.417l34.188,1.334l0.834,77.339l-11-0.833l-5-10.758l-2.168,0.125
			c0,0-6.334,10.961-23.334,8.627s-27-11.166-29.166-31.5v-72c0,0,2.5-24.334,26.666-26.5h16.168c0,0,13.666,0.167,20.5,11.5
			c6.832,11.333,7.334,33.667,7.334,33.667l-27.502-0.833l-0.666-15.5c0,0-1.334-6-6.584-6s-8.25,1.25-8.5,8
			s-0.082,62.667-0.082,62.667s-0.584,12.75,8,13.208c8.582,0.458,7.332-7.75,7.332-7.75L560.643,390.001z"/>
		<path fill="#FFFFFF" d="M657.643,313.833l-47.5-0.667l-14,133.667l26.832,2.916l2.334-22l17.666,1.667l2.25,23.333l26.5,3.75
			L657.643,313.833z M627.559,406.584l4.762-70.084l1.904-0.141l6.668,70.808L627.559,406.584z"/>
	</g>
	<path fill="#FFFFFF" d="M425.18,450.094c12.418,0,22.482,9.228,22.482,20.61v44.479c0,11.383-9.531,20.608-21.949,20.608h-7.275
		c-12.416,0-22.482-9.228-22.482-20.608v-44.479c0-11.384,9.539-20.61,21.955-20.61H425.18 M425.18,446.594h-7.27
		c-14.273,0-25.455,10.591-25.455,24.11v44.479c0,13.293,11.656,24.108,25.982,24.108h7.275c14.271,0,25.449-10.59,25.449-24.108
		v-44.479C451.163,457.409,439.508,446.594,425.18,446.594L425.18,446.594z"/>
	<path fill="#FFFFFF" d="M227.309,448.583l28.25,1.084l5.292,38.583l7.375-38.125l28.125,1l-1.875,83.25l-19.625-0.625l0.5-55
		l-9.375,54.625l-14.625-0.625l-5.5-51.75l-2.75,51.875l-19.813-1.063L227.309,448.583 M227.307,445.083
		c-1.858,0-3.403,1.46-3.494,3.331l-4.021,83.229c-0.093,1.925,1.386,3.562,3.309,3.664l19.813,1.063
		c0.063,0.003,0.125,0.005,0.188,0.005c0.861,0,1.695-0.318,2.34-0.896c0.69-0.621,1.106-1.491,1.155-2.419l0.422-7.962l0.853,8.021
		c0.184,1.723,1.6,3.053,3.331,3.127l14.625,0.625c0.051,0.002,0.102,0.003,0.151,0.003c1.696,0,3.158-1.222,3.447-2.908
		l2.031-11.833l-0.105,11.584c-0.017,1.902,1.487,3.47,3.389,3.53l19.625,0.625c0.037,0.001,0.074,0.002,0.111,0.002
		c0.894,0,1.756-0.342,2.407-0.959c0.678-0.642,1.071-1.528,1.092-2.462l1.875-83.25c0.044-1.915-1.461-3.509-3.375-3.577l-28.125-1
		c-0.042-0.001-0.084-0.002-0.125-0.002c-1.67,0-3.116,1.185-3.436,2.835l-3.351,17.321l-2.412-17.59
		c-0.231-1.684-1.637-2.957-3.334-3.021l-28.25-1.084C227.397,445.084,227.352,445.083,227.307,445.083L227.307,445.083z"/>
	<path fill="#FFFFFF" d="M342.809,450.994l13.167,84.167l-22.958-0.244l-1.042-15.25l-8.833,0.167l-1.334,14.541h-24l13.667-83.381
		H342.809 M342.809,447.494h-31.333c-1.715,0-3.177,1.242-3.454,2.934l-13.667,83.381c-0.166,1.015,0.122,2.051,0.786,2.832
		c0.665,0.783,1.641,1.234,2.667,1.234h24c1.81,0,3.32-1.379,3.485-3.181l1.048-11.42l2.369-0.046l0.814,11.927
		c0.125,1.821,1.629,3.242,3.455,3.262l22.957,0.244c0.014,0,0.024,0,0.037,0c1.017,0,1.981-0.441,2.647-1.21
		c0.673-0.778,0.97-1.814,0.811-2.831l-13.167-84.167C346,448.75,344.533,447.494,342.809,447.494L342.809,447.494z"/>
	<path fill="#FFFFFF" d="M387.643,450.994c0,0,0.416,60.506,0,71.839c-0.418,11.333-14.084,12.328-14.084,12.328h-16.958
		l-0.625-13.661c0.482,0.03,0.938,0.045,1.372,0.045c8.489,0,7.752-5.549,7.752-5.549v-65.002H387.643 M387.643,447.494H365.1
		c-1.932,0-3.5,1.566-3.5,3.5v65.002c0,0.233-0.021,0.213,0.016,0.389c-0.009,0.141-0.059,0.437-0.308,0.692
		c-0.221,0.227-1.155,0.968-3.961,0.968c-0.364,0-0.753-0.013-1.151-0.038c-0.073-0.005-0.146-0.007-0.221-0.007
		c-0.915,0-1.797,0.358-2.454,1.004c-0.709,0.697-1.088,1.663-1.041,2.656l0.625,13.661c0.085,1.867,1.625,3.34,3.495,3.34h16.958
		c0.086,0,0.172-0.003,0.256-0.009c5.809-0.425,16.904-4.247,17.326-15.69c0.414-11.28,0.02-69.519,0.002-71.992
		C391.129,449.047,389.567,447.494,387.643,447.494L387.643,447.494z"/>
	<path fill="#FFFFFF" d="M477.37,449.438c7.316,0,14.496,0.302,17.98,1.312c8.625,2.5,10.625,14.125,10.625,14.125
		s1.084,8.362-0.125,15.75c-1.15,7.036-9.359,7.953-9.359,7.953s-0.348,0.34-0.318,0.483c0.037,0.174,0.387,0.6,0.387,0.6
		c0.059-0.001,0.117-0.001,0.176-0.001c7.195,0.001,9.648,5.076,10.305,8.401c1.625,8.271,2.02,33.854,2.02,33.854l-21.166,0.916
		c0,0-1.416-29.333-1.834-32.916c-0.416-3.583-3-4.25-3-4.25h-3.25l1.168,37l-22.834,1l-2.666-83.573
		C455.475,450.094,466.575,449.438,477.37,449.438 M477.37,445.938c-10.773,0-21.988,0.653-22.102,0.66
		c-1.893,0.112-3.352,1.711-3.291,3.605l2.666,83.573c0.029,0.936,0.434,1.818,1.119,2.455c0.648,0.602,1.498,0.934,2.379,0.934
		c0.053,0,0.104-0.001,0.154-0.003l22.832-1c1.666-0.073,3.012-1.301,3.293-2.881c0.225,1.734,1.707,3.05,3.469,3.05
		c0.053,0,0.104-0.001,0.154-0.003l21.166-0.916c1.895-0.082,3.377-1.656,3.348-3.551c-0.016-1.059-0.42-25.994-2.086-34.477
		c-0.633-3.22-2.355-6.569-5.432-8.764c2.047-1.694,3.719-4.104,4.264-7.434c1.277-7.806,0.189-16.403,0.143-16.767
		c-0.006-0.048-0.014-0.096-0.021-0.144c-0.096-0.563-2.492-13.818-13.1-16.894C492.959,446.413,486.76,445.938,477.37,445.938
		L477.37,445.938z"/>
	<g>
		<polygon fill="#262235" points="223.288,531.813 227.309,448.583 255.559,449.667 260.851,488.25 268.226,450.125 
			296.351,451.125 294.476,534.375 274.851,533.75 275.351,478.75 265.976,533.375 251.351,532.75 245.851,481 243.101,532.875 		
			"/>
		<path fill="#262235" d="M355.976,521.5l0.625,13.661h16.958c0,0,13.666-0.995,14.084-12.328c0.416-11.333,0-71.839,0-71.839H365.1
			v65.002C365.1,515.996,365.913,522.125,355.976,521.5z"/>
		<path fill="#262235" d="M507.038,498.063c-0.658-3.354-3.146-8.484-10.479-8.401c0,0-0.35-0.426-0.387-0.601
			c-0.027-0.144,0.318-0.482,0.318-0.482s8.209-0.917,9.359-7.953c1.209-7.388,0.125-15.75,0.125-15.75s-2-11.625-10.625-14.125
			s-39.875-0.656-39.875-0.656l2.666,83.573l22.834-1l-1.168-37h3.25c0,0,2.584,0.667,3,4.25c0.418,3.583,1.834,32.916,1.834,32.916
			l21.166-0.916C509.059,531.917,508.663,506.334,507.038,498.063z M485.434,476.416c0,0,0.008,2.269-0.166,3
			c-0.416,1.761-2.229,3.576-6.625,2.918v-18.188c0,0,4.416-0.979,5.75,2.188C485.725,469.501,485.434,476.416,485.434,476.416z"/>
		<path fill="#262235" d="M425.18,450.094h-7.27c-12.416,0-21.955,9.228-21.955,20.61v44.479c0,11.383,10.066,20.608,22.482,20.608
			h7.275c12.418,0,21.949-9.228,21.949-20.608v-44.479C447.663,459.32,437.598,450.094,425.18,450.094z M425.383,517.505
			c0,2.617-1.512,4.738-3.375,4.738s-3.375-2.121-3.375-4.738v-48.622c0-2.615,1.512-4.735,3.375-4.735s3.375,2.12,3.375,4.735
			V517.505z"/>
		<path fill="#262235" d="M342.809,450.994h-31.333l-13.667,83.381h24l1.334-14.541l8.833-0.167l1.042,15.25l22.958,0.244
			L342.809,450.994z M323.809,505.167l4.167-33l2.667,33H323.809z"/>
		<polygon fill="#FFFFFF" points="323.809,505.167 327.976,472.167 330.643,505.167 		"/>
		<path fill="#FFFFFF" d="M425.383,517.505c0,2.617-1.512,4.738-3.375,4.738s-3.375-2.121-3.375-4.738v-48.622
			c0-2.615,1.512-4.735,3.375-4.735s3.375,2.12,3.375,4.735V517.505z"/>
		<path fill="#FFFFFF" d="M485.434,476.416c0,0,0.008,2.269-0.166,3c-0.416,1.761-2.229,3.576-6.625,2.918v-18.188
			c0,0,4.416-0.979,5.75,2.188C485.725,469.501,485.434,476.416,485.434,476.416z"/>
	</g>
</g>
</svg>
