<?xml version="1.0" encoding="utf-8"?>
<!-- Generator: Adobe Illustrator 25.2.1, SVG Export Plug-In . SVG Version: 6.00 Build 0)  -->
<svg version="1.1" id="Layer_1" xmlns="http://www.w3.org/2000/svg" xmlns:xlink="http://www.w3.org/1999/xlink" x="0px" y="0px"
	 viewBox="0 0 492.48 397.817" enable-background="new 0 0 492.48 397.817" xml:space="preserve">
<g>
	<defs>
		<rect id="SVGID_1_" x="919.689" y="-700.868" width="1920" height="1506.094"/>
	</defs>
	<clipPath id="SVGID_2_">
		<use xlink:href="#SVGID_1_"  overflow="visible"/>
	</clipPath>
	<g clip-path="url(#SVGID_2_)">
		
			<line opacity="0.3" fill="#E0E0E0" stroke="#B27826" stroke-width="3" stroke-miterlimit="10" x1="1913.645" y1="2193.68" x2="-89.675" y2="379.132"/>
		
			<line opacity="0.3" fill="#E0E0E0" stroke="#B27826" stroke-width="3" stroke-miterlimit="10" x1="1932.645" y1="2175.68" x2="-70.675" y2="361.132"/>
		
			<line opacity="0.3" fill="#E0E0E0" stroke="#B27826" stroke-width="3" stroke-miterlimit="10" x1="1951.645" y1="2157.68" x2="-51.675" y2="343.132"/>
		
			<line opacity="0.3" fill="#E0E0E0" stroke="#B27826" stroke-width="3" stroke-miterlimit="10" x1="1970.645" y1="2139.68" x2="-32.675" y2="325.132"/>
		
			<line opacity="0.3" fill="#E0E0E0" stroke="#B27826" stroke-width="3" stroke-miterlimit="10" x1="1989.645" y1="2121.68" x2="-13.675" y2="307.132"/>
		
			<line opacity="0.3" fill="#E0E0E0" stroke="#B27826" stroke-width="3" stroke-miterlimit="10" x1="2008.645" y1="2103.68" x2="5.325" y2="289.132"/>
		
			<line opacity="0.3" fill="#E0E0E0" stroke="#B27826" stroke-width="3" stroke-miterlimit="10" x1="2027.645" y1="2085.68" x2="24.325" y2="271.132"/>
		
			<line opacity="0.3" fill="#E0E0E0" stroke="#B27826" stroke-width="3" stroke-miterlimit="10" x1="2046.645" y1="2067.68" x2="43.325" y2="253.132"/>
		
			<line opacity="0.3" fill="#E0E0E0" stroke="#B27826" stroke-width="3" stroke-miterlimit="10" x1="2065.645" y1="2049.68" x2="62.325" y2="235.132"/>
		
			<line opacity="0.3" fill="#E0E0E0" stroke="#B27826" stroke-width="3" stroke-miterlimit="10" x1="2084.645" y1="2031.68" x2="81.325" y2="217.132"/>
		
			<line opacity="0.3" fill="#E0E0E0" stroke="#B27826" stroke-width="3" stroke-miterlimit="10" x1="2103.645" y1="2013.68" x2="100.325" y2="199.132"/>
		
			<line opacity="0.3" fill="#E0E0E0" stroke="#B27826" stroke-width="3" stroke-miterlimit="10" x1="2122.645" y1="1995.68" x2="119.325" y2="181.132"/>
		
			<line opacity="0.3" fill="#E0E0E0" stroke="#B27826" stroke-width="3" stroke-miterlimit="10" x1="2141.645" y1="1977.68" x2="138.325" y2="163.132"/>
		
			<line opacity="0.3" fill="#E0E0E0" stroke="#B27826" stroke-width="3" stroke-miterlimit="10" x1="2160.645" y1="1959.68" x2="157.325" y2="145.132"/>
		
			<line opacity="0.3" fill="#E0E0E0" stroke="#B27826" stroke-width="3" stroke-miterlimit="10" x1="2179.645" y1="1941.68" x2="176.325" y2="127.132"/>
		
			<line opacity="0.3" fill="#E0E0E0" stroke="#B27826" stroke-width="3" stroke-miterlimit="10" x1="2198.645" y1="1923.68" x2="195.325" y2="109.132"/>
		
			<line opacity="0.3" fill="#E0E0E0" stroke="#B27826" stroke-width="3" stroke-miterlimit="10" x1="2217.645" y1="1905.68" x2="214.325" y2="91.132"/>
		
			<line opacity="0.3" fill="#E0E0E0" stroke="#B27826" stroke-width="3" stroke-miterlimit="10" x1="2236.645" y1="1887.68" x2="233.325" y2="73.132"/>
		
			<line opacity="0.3" fill="#E0E0E0" stroke="#B27826" stroke-width="3" stroke-miterlimit="10" x1="2255.645" y1="1869.68" x2="252.325" y2="55.132"/>
		
			<line opacity="0.3" fill="#E0E0E0" stroke="#B27826" stroke-width="3" stroke-miterlimit="10" x1="2274.645" y1="1851.68" x2="271.325" y2="37.132"/>
		
			<line opacity="0.3" fill="#E0E0E0" stroke="#B27826" stroke-width="3" stroke-miterlimit="10" x1="2293.645" y1="1833.68" x2="290.325" y2="19.132"/>
		
			<line opacity="0.3" fill="#E0E0E0" stroke="#B27826" stroke-width="3" stroke-miterlimit="10" x1="2312.645" y1="1815.68" x2="309.325" y2="1.132"/>
		
			<line opacity="0.3" fill="#E0E0E0" stroke="#B27826" stroke-width="3" stroke-miterlimit="10" x1="2331.645" y1="1797.68" x2="328.325" y2="-16.868"/>
		
			<line opacity="0.3" fill="#E0E0E0" stroke="#B27826" stroke-width="3" stroke-miterlimit="10" x1="2350.645" y1="1779.68" x2="347.325" y2="-34.868"/>
		
			<line opacity="0.3" fill="#E0E0E0" stroke="#B27826" stroke-width="3" stroke-miterlimit="10" x1="2369.645" y1="1761.68" x2="366.325" y2="-52.868"/>
		
			<line opacity="0.3" fill="#E0E0E0" stroke="#B27826" stroke-width="3" stroke-miterlimit="10" x1="2388.645" y1="1743.68" x2="385.325" y2="-70.868"/>
		
			<line opacity="0.3" fill="#E0E0E0" stroke="#B27826" stroke-width="3" stroke-miterlimit="10" x1="2407.645" y1="1725.68" x2="404.325" y2="-88.868"/>
		
			<line opacity="0.3" fill="#E0E0E0" stroke="#B27826" stroke-width="3" stroke-miterlimit="10" x1="2426.645" y1="1707.68" x2="423.325" y2="-106.868"/>
		
			<line opacity="0.3" fill="#E0E0E0" stroke="#B27826" stroke-width="3" stroke-miterlimit="10" x1="2445.645" y1="1689.68" x2="442.325" y2="-124.868"/>
		
			<line opacity="0.3" fill="#E0E0E0" stroke="#B27826" stroke-width="3" stroke-miterlimit="10" x1="2464.645" y1="1671.68" x2="461.325" y2="-142.868"/>
		
			<line opacity="0.3" fill="#E0E0E0" stroke="#B27826" stroke-width="3" stroke-miterlimit="10" x1="2483.645" y1="1653.68" x2="480.325" y2="-160.868"/>
	</g>
</g>
<g>
	<linearGradient id="SVGID_4_" gradientUnits="userSpaceOnUse" x1="64.5645" y1="195.8125" x2="439.4355" y2="195.8125">
		<stop  offset="0" style="stop-color:#000000"/>
		<stop  offset="0.7796" style="stop-color:#1B1A23"/>
	</linearGradient>
	<polygon fill="url(#SVGID_4_)" points="91.588,112.408 251.727,17.334 411.71,112.59 412.315,172.133 438.6,172.133 
		439.436,275.994 412.396,273.945 412.073,303.648 252,374.291 91.588,303.83 90.955,273.666 64.564,275.926 64.564,171.713 
		91.258,171.689 	"/>
	<linearGradient id="SVGID_5_" gradientUnits="userSpaceOnUse" x1="102.0194" y1="99.8315" x2="401.8438" y2="99.8315">
		<stop  offset="0" style="stop-color:#00C466"/>
		<stop  offset="1" style="stop-color:#008CB4"/>
	</linearGradient>
	<path fill="url(#SVGID_5_)" d="M102.019,168.405v-49.939l38.385-21.43l65.221-2.235l-50.126-6.708L252,31.258l75.4,44.629
		l-18.448,1.397l31.214,5.59l61.678,36.151v49.38L320.506,145.3l17.469-12.858l-23.478-0.279l-7.779-22.641l-8.013,22.826
		l-25.087,0.304c0,0-1.606-0.513-1.677-1.095c-0.069-0.583,0.233-1.002,0.651-1.281c0.42-0.279,18.379-13.58,18.379-13.58
		l-29.069-0.093l-9.038-27.207l-9.224,26.928l-28.93,0.326l19.24,14.395c0,0-3.413,1.293-3.763,1.224
		c-0.349-0.07-25.308-0.292-25.308-0.292l-7.5-22.734l-8.036,22.851l-24.248,0.139l17.539,13.068L102.019,168.405z"/>
	<linearGradient id="SVGID_7_" gradientUnits="userSpaceOnUse" x1="101.9257" y1="302.4091" x2="338.1151" y2="302.4091">
		<stop  offset="0" style="stop-color:#DEDFE1"/>
		<stop  offset="1" style="stop-color:#E7E6E7"/>
	</linearGradient>
	<polygon fill="url(#SVGID_7_)" points="101.926,275.413 101.926,298.612 176.184,329.405 338.115,313.147 	"/>
	<linearGradient id="SVGID_9_" gradientUnits="userSpaceOnUse" x1="191.369" y1="290.833" x2="401.8438" y2="290.833">
		<stop  offset="0" style="stop-color:#DFDFE2"/>
		<stop  offset="1" style="stop-color:#FFFEFD"/>
	</linearGradient>
	<polygon fill="url(#SVGID_9_)" points="371.285,311.145 401.844,297.542 401.844,273.689 317.059,270.522 191.369,276.671 
		191.369,280.863 	"/>
	<polygon fill="#FFFFFF" points="197.237,126.793 200.773,137.673 212.213,137.673 202.957,144.397 206.492,155.278 
		197.237,148.554 187.981,155.278 191.518,144.397 182.261,137.673 193.702,137.673 	"/>
	<polygon fill="#FFFFFF" points="306.618,126.793 310.154,137.673 321.594,137.673 312.339,144.397 315.874,155.278 
		306.618,148.554 297.363,155.278 300.898,144.397 291.643,137.673 303.084,137.673 	"/>
	<polygon fill="#FFFFFF" points="252.892,106.4 257.953,121.979 274.333,121.979 261.082,131.607 266.144,147.186 252.892,137.558 
		239.64,147.186 244.701,131.607 231.449,121.979 247.829,121.979 	"/>
	<g>
		<polygon fill="#FFFFFF" points="113.525,257.105 80.683,261.158 80.543,181.915 112.268,181.915 112.407,195.812 96.569,196.311 
			96.615,211.917 111.802,211.125 111.778,225.24 96.686,226.358 96.686,244.107 113.525,242.85 		"/>
		<path fill="#FFFFFF" d="M119.256,256.266v-74.351h23.758l6.587,40.845l1.292,0.018l6.656-40.862h24.038v69.6l-14.534,0.652
			l0.139-48.543l-0.978,0.048l-8.805,49.357l-13.976,0.908l-9.084-49.242c0,0-0.577-1.152-1.118-0.174l-0.186,50.347
			L119.256,256.266z"/>
		<path fill="#FFFFFF" d="M212.753,181.915h-23.619v68.9l15.374-0.559v-27.603l9.597-0.022
			c12.111-0.373,13.276-13.603,13.276-13.603l0.047-5.591C229.664,181.776,212.753,181.915,212.753,181.915z M211.914,205.954
			c0,0-0.139,3.983-3.145,4.611c-3.005,0.629-4.192,0-4.192,0v-16.561c0,0,2.862-0.129,3.806,0c1.23,0.169,3.252,0.909,3.531,3.494
			C212.193,200.084,211.914,205.954,211.914,205.954z"/>
		<path fill="#FFFFFF" d="M254.723,181.869h-5.493c-9.38,0-16.585,7.378-16.585,16.48v35.568c0,9.101,7.604,16.479,16.983,16.479
			h5.495c9.38,0,16.581-7.378,16.581-16.479v-35.568C271.704,189.247,264.101,181.869,254.723,181.869z M255.799,234.884
			c0,2.007-1.628,3.633-3.635,3.633c-2.006,0-3.633-1.626-3.633-3.633v-37.303c0-2.007,1.627-3.634,3.633-3.634
			c2.007,0,3.635,1.627,3.635,3.634V234.884z"/>
		<polygon fill="#FFFFFF" points="279.045,182.848 278.858,250.956 311.188,252.167 311.188,240.893 294.604,240.194 
			294.546,182.848 		"/>
		<polygon fill="#FFFFFF" points="315.568,252.726 330.382,253.192 330.429,183.22 315.241,183.22 		"/>
		<path fill="#FFFFFF" d="M360.849,225.8l-4.017-0.141v-12.532l19.112,0.747l0.466,43.234l-6.149-0.466l-2.795-6.015l-1.212,0.07
			c0,0-3.54,6.128-13.044,4.823c-9.504-1.305-15.095-6.242-16.305-17.61v-40.25c0,0,1.397-13.603,14.907-14.814h9.037
			c0,0,7.641,0.093,11.46,6.429c3.821,6.335,4.101,18.82,4.101,18.82l-15.374-0.466l-0.372-8.665c0,0-0.746-3.355-3.681-3.355
			c-2.936,0-4.612,0.699-4.752,4.473c-0.14,3.773-0.047,35.033-0.047,35.033s-0.326,7.127,4.473,7.383
			c4.798,0.256,4.1-4.332,4.1-4.332L360.849,225.8z"/>
		<path fill="#FFFFFF" d="M415.075,183.22l-26.554-0.372l-7.827,74.724l15,1.63l1.305-12.298l9.876,0.931l1.258,13.045l14.814,2.096
			L415.075,183.22z M398.258,235.07l2.66-39.18l1.066-0.078l3.727,39.584L398.258,235.07z"/>
	</g>
	<g>
		<g>
			<path fill="#FFFFFF" d="M204.974,308.448c-0.404,0-0.792-0.163-1.074-0.453c-0.282-0.29-0.436-0.682-0.425-1.086l0.496-19.046
				l-3.975,19.386c-0.144,0.698-0.758,1.199-1.47,1.199h-8.295c-0.712,0-1.326-0.501-1.47-1.198l-3.976-19.389l0.496,19.048
				c0.011,0.404-0.143,0.796-0.425,1.086c-0.282,0.29-0.67,0.453-1.074,0.453H173.49c-0.828,0-1.5-0.672-1.5-1.5v-46.62
				c0-0.828,0.672-1.5,1.5-1.5h15.258c0.71,0,1.323,0.498,1.468,1.193l4.148,19.828c0.011,0.055,0.021,0.107,0.086,0.581
				c0.09-0.561,0.114-0.676,0.128-0.739l4.116-19.671c0.145-0.694,0.758-1.192,1.468-1.192h15.105c0.828,0,1.5,0.672,1.5,1.5v46.62
				c0,0.828-0.672,1.5-1.5,1.5H204.974z"/>
			<path fill="#FFFFFF" d="M215.267,260.328v46.62h-10.293l0.938-36.024l-7.386,36.024h-8.295l-7.387-36.024l0.939,36.024H173.49
				v-46.62h15.258l4.147,19.828c0.019,0.102,0.186,1.348,0.499,3.739c0.312,2.392,0.641,4.788,0.984,7.189
				c0.262-1.796,0.59-4.021,0.983-6.675c0.394-2.653,0.621-4.122,0.682-4.405l4.117-19.677H215.267 M215.267,257.328h-15.105
				c-1.42,0-2.646,0.996-2.937,2.386l-2.77,13.241l-2.77-13.241c-0.291-1.39-1.517-2.386-2.936-2.386H173.49c-1.657,0-3,1.343-3,3
				v46.62c0,1.657,1.343,3,3,3h10.293c0.81,0,1.584-0.327,2.148-0.906c0.566-0.58,0.871-1.363,0.851-2.172l-0.054-2.071l0.564,2.752
				c0.286,1.395,1.514,2.397,2.939,2.397h8.295c1.425,0,2.652-1.002,2.938-2.397l0.563-2.747l-0.054,2.066
				c-0.021,0.809,0.285,1.592,0.851,2.172c0.564,0.579,1.339,0.906,2.148,0.906h10.293c1.657,0,3-1.343,3-3v-46.62
				C218.267,258.671,216.924,257.328,215.267,257.328L215.267,257.328z"/>
		</g>
		<g>
			<path fill="#FFFFFF" d="M219.856,308.448c-0.828,0-1.5-0.672-1.5-1.5v-46.62c0-0.828,0.672-1.5,1.5-1.5h10.898
				c0.828,0,1.5,0.672,1.5,1.5v46.62c0,0.828-0.672,1.5-1.5,1.5H219.856z"/>
			<path fill="#FFFFFF" d="M230.755,260.328v46.62h-10.898v-46.62H230.755 M230.755,257.328h-10.898c-1.657,0-3,1.343-3,3v46.62
				c0,1.657,1.343,3,3,3h10.898c1.657,0,3-1.343,3-3v-46.62C233.755,258.671,232.412,257.328,230.755,257.328L230.755,257.328z"/>
		</g>
		<g>
			<path fill="#FFFFFF" d="M252.902,308.448c-0.658,0-1.24-0.43-1.434-1.06l-5.141-16.72c0.135,2.871,0.203,5.69,0.203,8.408v7.871
				c0,0.828-0.672,1.5-1.5,1.5h-9.809c-0.828,0-1.5-0.672-1.5-1.5v-46.62c0-0.828,0.672-1.5,1.5-1.5h11.352
				c0.655,0,1.234,0.425,1.431,1.05l5.329,16.931c-0.003-0.061-0.006-0.122-0.009-0.182c-0.172-3.505-0.259-6.524-0.259-8.973
				v-7.326c0-0.828,0.672-1.5,1.5-1.5h9.718c0.828,0,1.5,0.672,1.5,1.5v46.62c0,0.828-0.672,1.5-1.5,1.5H252.902z"/>
			<path fill="#FFFFFF" d="M264.285,260.328v46.62h-11.383l-9.112-29.638c0.403,3.855,0.711,7.594,0.923,11.217
				c0.212,3.623,0.318,7.14,0.318,10.55v7.871h-9.809v-46.62h11.352l9.052,28.759c-0.363-4.844-0.632-9.022-0.803-12.533
				c-0.172-3.511-0.257-6.478-0.257-8.899v-7.326H264.285 M264.285,257.328h-9.718c-1.657,0-3,1.343-3,3v5.868l-2.131-6.769
				c-0.393-1.25-1.552-2.1-2.861-2.1h-11.352c-1.657,0-3,1.343-3,3v46.62c0,1.657,1.343,3,3,3h9.809c1.657,0,3-1.343,3-3v-5.635
				l2.004,6.517c0.387,1.259,1.55,2.118,2.867,2.118h11.383c1.657,0,3-1.343,3-3v-46.62
				C267.285,258.671,265.942,257.328,264.285,257.328L264.285,257.328z"/>
		</g>
		<g>
			<path fill="#FFFFFF" d="M283.496,309.568c-3.233,0-6.065-0.557-8.415-1.654c-2.406-1.124-4.377-2.844-5.858-5.11
				c-1.06-1.658-1.784-3.827-2.225-6.644c-0.419-2.68-0.623-6.776-0.623-12.522c0-5.745,0.204-9.842,0.623-12.522
				c0.44-2.815,1.165-4.984,2.217-6.63c1.487-2.299,3.461-4.026,5.871-5.141c2.348-1.086,5.177-1.637,8.41-1.637
				c3.255,0,6.082,0.552,8.401,1.64c2.378,1.116,4.334,2.842,5.815,5.131c1.091,1.658,1.839,3.842,2.281,6.668
				c0.419,2.683,0.622,6.768,0.622,12.491c0,5.702-0.203,9.783-0.622,12.477c-0.442,2.837-1.19,5.025-2.288,6.693
				c-1.453,2.258-3.41,3.98-5.808,5.105C289.557,309.012,286.73,309.568,283.496,309.568z"/>
			<path fill="#FFFFFF" d="M283.496,259.208c3.047,0,5.635,0.499,7.765,1.498c2.129,0.999,3.86,2.528,5.192,4.587
				c0.969,1.473,1.654,3.501,2.059,6.085c0.403,2.583,0.604,6.67,0.604,12.26c0,5.57-0.201,9.652-0.604,12.246
				c-0.404,2.593-1.09,4.627-2.059,6.1c-1.312,2.039-3.043,3.562-5.192,4.571c-2.15,1.009-4.737,1.514-7.765,1.514
				c-3.027,0-5.621-0.505-7.78-1.514c-2.16-1.009-3.905-2.532-5.237-4.571c-0.929-1.453-1.595-3.471-1.998-6.055
				c-0.404-2.583-0.605-6.68-0.605-12.291c0-5.61,0.201-9.707,0.605-12.29c0.403-2.584,1.069-4.602,1.998-6.055
				c1.332-2.059,3.077-3.588,5.237-4.587C277.875,259.707,280.469,259.208,283.496,259.208 M283.496,256.208
				c-3.452,0-6.494,0.598-9.04,1.775c-2.671,1.235-4.857,3.147-6.496,5.68c-1.175,1.838-1.972,4.196-2.443,7.222
				c-0.432,2.757-0.642,6.929-0.642,12.753c0,5.824,0.21,9.997,0.642,12.755c0.472,3.025,1.269,5.383,2.435,7.206
				c1.651,2.53,3.832,4.431,6.495,5.674c2.55,1.191,5.595,1.796,9.05,1.796c3.456,0,6.497-0.604,9.039-1.798
				c2.657-1.247,4.824-3.152,6.44-5.663c1.201-1.826,2.024-4.209,2.5-7.262c0.432-2.772,0.641-6.928,0.641-12.708
				c0-5.801-0.21-9.963-0.641-12.723c-0.476-3.042-1.299-5.42-2.517-7.271c-1.623-2.509-3.788-4.418-6.424-5.654
				C290.014,256.808,286.973,256.208,283.496,256.208L283.496,256.208z"/>
		</g>
		<g>
			<path fill="#FFFFFF" d="M321.537,308.448c-0.666,0-1.253-0.439-1.439-1.079c-0.305-1.042-0.53-2.145-0.67-3.279
				c-0.138-1.115-0.208-2.323-0.208-3.59c0-0.762,0.02-1.685,0.062-2.767c0.039-1.029,0.06-1.702,0.06-2.017
				c0-3.296-0.528-4.531-0.843-4.974c-0.445-0.626-1.389-0.943-2.804-0.943h-0.74v17.148c0,0.828-0.672,1.5-1.5,1.5h-10.777
				c-0.828,0-1.5-0.672-1.5-1.5v-46.62c0-0.828,0.672-1.5,1.5-1.5h12.261c4.156,0,7.117,0.193,9.051,0.59
				c2.044,0.421,3.745,1.169,5.058,2.223c1.53,1.252,2.681,2.806,3.429,4.625c0.729,1.772,1.098,3.878,1.098,6.263
				c0,2.912-0.53,5.415-1.575,7.439c-0.727,1.406-1.73,2.647-2.996,3.711c2.572,2.115,3.955,5.686,4.116,10.658l0.001,0.2
				c0.018,0.541,0.04,1.396,0.06,2.516c0.095,6.24,1.321,8.147,2.043,8.729c0.496,0.398,0.685,1.066,0.475,1.667
				c-0.212,0.6-0.779,1.001-1.415,1.001H321.537z M314.954,278.292c1.749-0.016,2.998-0.34,3.617-0.939
				c0.622-0.603,0.951-1.82,0.951-3.523c0-1.061-0.157-2.465-0.907-3.134c-0.438-0.391-1.43-0.857-3.661-0.874V278.292z"/>
			<path fill="#FFFFFF" d="M314.937,257.328h-12.261c-1.657,0-3,1.343-3,3v46.62c0,1.657,1.343,3,3,3h10.777c1.657,0,3-1.343,3-3
				v-15.604c0.562,0.075,0.788,0.221,0.823,0.27c0.021,0.03,0.563,0.831,0.563,4.103c0,0.189-0.01,0.684-0.059,1.961
				c-0.041,1.073-0.062,2.024-0.062,2.822c0,1.328,0.073,2.598,0.219,3.774c0.15,1.214,0.392,2.396,0.719,3.516
				c0.374,1.279,1.547,2.158,2.88,2.158h12.744c1.272,0,2.406-0.803,2.829-2.003c0.423-1.199,0.043-2.536-0.947-3.334
				c-0.057-0.045-1.388-1.189-1.484-7.578c-0.021-1.107-0.041-1.952-0.06-2.547v-0.102c0-0.032-0.001-0.065-0.002-0.098
				c-0.15-4.631-1.304-8.178-3.44-10.601c0.863-0.915,1.583-1.927,2.153-3.031c1.157-2.238,1.743-4.973,1.743-8.127
				c0-2.581-0.407-4.88-1.21-6.832c-0.845-2.054-2.142-3.806-3.856-5.208c-1.521-1.222-3.437-2.07-5.714-2.539
				C322.256,257.531,319.196,257.328,314.937,257.328L314.937,257.328z"/>
		</g>
		<g>
			<path fill="#0E7F6A" d="M173.49,306.948v-46.62h15.258l4.147,19.828c0.019,0.102,0.186,1.348,0.499,3.739
				c0.312,2.392,0.641,4.788,0.984,7.189c0.262-1.796,0.59-4.021,0.983-6.675c0.394-2.653,0.621-4.122,0.682-4.405l4.117-19.677
				h15.105v46.62h-10.293l0.938-36.024l-7.386,36.024h-8.295l-7.387-36.024l0.939,36.024H173.49z"/>
			<path fill="#0E7F6A" d="M219.856,306.948v-46.62h10.898v46.62H219.856z"/>
			<path fill="#0E7F6A" d="M235.223,306.948v-46.62h11.352l9.052,28.759c-0.363-4.844-0.632-9.022-0.803-12.533
				c-0.172-3.511-0.257-6.478-0.257-8.899v-7.326h9.718v46.62h-11.383l-9.112-29.638c0.403,3.855,0.711,7.594,0.923,11.217
				c0.212,3.623,0.318,7.14,0.318,10.55v7.871H235.223z"/>
			<path fill="#0E7F6A" d="M267.875,283.638c0-5.61,0.201-9.707,0.605-12.29c0.403-2.584,1.069-4.602,1.998-6.055
				c1.332-2.059,3.077-3.588,5.237-4.587c2.159-0.999,4.753-1.498,7.78-1.498c3.047,0,5.635,0.499,7.765,1.498
				c2.129,0.999,3.86,2.528,5.192,4.587c0.969,1.473,1.654,3.501,2.059,6.085c0.403,2.583,0.604,6.67,0.604,12.26
				c0,5.57-0.201,9.652-0.604,12.246c-0.404,2.593-1.09,4.627-2.059,6.1c-1.312,2.039-3.043,3.562-5.192,4.571
				c-2.15,1.009-4.737,1.514-7.765,1.514c-3.027,0-5.621-0.505-7.78-1.514c-2.16-1.009-3.905-2.532-5.237-4.571
				c-0.929-1.453-1.595-3.471-1.998-6.055C268.076,293.346,267.875,289.249,267.875,283.638z M287.977,287.846v-8.416
				c0-5.166-0.328-8.359-0.984-9.581c-0.656-1.221-1.842-1.831-3.557-1.831c-1.676,0-2.836,0.625-3.482,1.877
				c-0.646,1.251-0.969,4.43-0.969,9.535v8.416c0,5.046,0.322,8.209,0.969,9.491c0.646,1.281,1.826,1.922,3.542,1.922
				c1.695,0,2.865-0.625,3.512-1.877C287.653,296.131,287.977,292.952,287.977,287.846z"/>
			<path fill="#0E7F6A" d="M302.677,306.948v-46.62h12.261c4.016,0,6.933,0.186,8.749,0.56c1.816,0.374,3.289,1.015,4.42,1.923
				c1.332,1.09,2.325,2.432,2.981,4.026c0.655,1.594,0.984,3.491,0.984,5.691c0,2.684-0.47,4.934-1.408,6.75
				c-0.939,1.816-2.397,3.311-4.374,4.48c3.37,1.494,5.147,5.036,5.328,10.626v0.151c0.02,0.586,0.04,1.434,0.06,2.543
				c0.08,5.248,0.948,8.537,2.603,9.869h-12.744c-0.283-0.969-0.49-1.982-0.621-3.042c-0.131-1.059-0.196-2.195-0.196-3.406
				c0-0.746,0.02-1.649,0.061-2.709c0.04-1.06,0.061-1.751,0.061-2.074c0-2.846-0.374-4.793-1.12-5.843
				c-0.747-1.049-2.089-1.574-4.026-1.574h-2.24v18.648H302.677z M313.454,279.732c0.182,0,0.418,0.011,0.711,0.03
				c0.293,0.021,0.51,0.03,0.651,0.03c2.26,0,3.859-0.454,4.798-1.362c0.938-0.908,1.408-2.441,1.408-4.602
				c0-1.997-0.47-3.415-1.408-4.253c-0.939-0.837-2.538-1.256-4.798-1.256c-0.142,0-0.358,0.01-0.651,0.03
				c-0.293,0.02-0.529,0.03-0.711,0.03V279.732z"/>
		</g>
	</g>
</g>
</svg>
