<?xml version="1.0" encoding="UTF-8"?>
<svg enable-background="new 0 0 492.48 397.817" version="1.1" viewBox="0 0 492.48 397.817" xml:space="preserve" xmlns="http://www.w3.org/2000/svg" xmlns:xlink="http://www.w3.org/1999/xlink">
	<defs>
		<rect id="f" x="919.69" y="-700.87" width="1920" height="1506.1"/>
	</defs>
	<clipPath id="e">
		<use overflow="visible" xlink:href="#f"/>
	</clipPath>
	<g clip-path="url(#e)" fill="#E0E0E0" stroke="#B27826" stroke-miterlimit="10" stroke-width="3">
			<line x1="1913.6" x2="-89.675" y1="2193.7" y2="379.13" opacity=".3"/>
			<line x1="1932.6" x2="-70.675" y1="2175.7" y2="361.13" opacity=".3"/>
			<line x1="1951.6" x2="-51.675" y1="2157.7" y2="343.13" opacity=".3"/>
			<line x1="1970.6" x2="-32.675" y1="2139.7" y2="325.13" opacity=".3"/>
			<line x1="1989.6" x2="-13.675" y1="2121.7" y2="307.13" opacity=".3"/>
			<line x1="2008.6" x2="5.325" y1="2103.7" y2="289.13" opacity=".3"/>
			<line x1="2027.6" x2="24.325" y1="2085.7" y2="271.13" opacity=".3"/>
			<line x1="2046.6" x2="43.325" y1="2067.7" y2="253.13" opacity=".3"/>
			<line x1="2065.6" x2="62.325" y1="2049.7" y2="235.13" opacity=".3"/>
			<line x1="2084.6" x2="81.325" y1="2031.7" y2="217.13" opacity=".3"/>
			<line x1="2103.6" x2="100.32" y1="2013.7" y2="199.13" opacity=".3"/>
			<line x1="2122.6" x2="119.32" y1="1995.7" y2="181.13" opacity=".3"/>
			<line x1="2141.6" x2="138.32" y1="1977.7" y2="163.13" opacity=".3"/>
			<line x1="2160.6" x2="157.32" y1="1959.7" y2="145.13" opacity=".3"/>
			<line x1="2179.6" x2="176.32" y1="1941.7" y2="127.13" opacity=".3"/>
			<line x1="2198.6" x2="195.32" y1="1923.7" y2="109.13" opacity=".3"/>
			<line x1="2217.6" x2="214.32" y1="1905.7" y2="91.132" opacity=".3"/>
			<line x1="2236.6" x2="233.32" y1="1887.7" y2="73.132" opacity=".3"/>
			<line x1="2255.6" x2="252.32" y1="1869.7" y2="55.132" opacity=".3"/>
			<line x1="2274.6" x2="271.32" y1="1851.7" y2="37.132" opacity=".3"/>
			<line x1="2293.6" x2="290.32" y1="1833.7" y2="19.132" opacity=".3"/>
			<line x1="2312.6" x2="309.32" y1="1815.7" y2="1.132" opacity=".3"/>
			<line x1="2331.6" x2="328.32" y1="1797.7" y2="-16.868" opacity=".3"/>
			<line x1="2350.6" x2="347.32" y1="1779.7" y2="-34.868" opacity=".3"/>
			<line x1="2369.6" x2="366.32" y1="1761.7" y2="-52.868" opacity=".3"/>
			<line x1="2388.6" x2="385.32" y1="1743.7" y2="-70.868" opacity=".3"/>
			<line x1="2407.6" x2="404.32" y1="1725.7" y2="-88.868" opacity=".3"/>
			<line x1="2426.6" x2="423.32" y1="1707.7" y2="-106.87" opacity=".3"/>
			<line x1="2445.6" x2="442.32" y1="1689.7" y2="-124.87" opacity=".3"/>
			<line x1="2464.6" x2="461.32" y1="1671.7" y2="-142.87" opacity=".3"/>
			<line x1="2483.6" x2="480.32" y1="1653.7" y2="-160.87" opacity=".3"/>
	</g>
	<linearGradient id="d" x1="64.564" x2="439.44" y1="195.81" y2="195.81" gradientUnits="userSpaceOnUse">
		<stop offset="0"/>
		<stop stop-color="#1B1A23" offset=".7796"/>
	</linearGradient>
	<polygon points="91.588 112.41 251.73 17.334 411.71 112.59 412.32 172.13 438.6 172.13 439.44 275.99 412.4 273.94 412.07 303.65 252 374.29 91.588 303.83 90.955 273.67 64.564 275.93 64.564 171.71 91.258 171.69" fill="url(#d)"/>
	<linearGradient id="c" x1="102.02" x2="401.84" y1="99.832" y2="99.832" gradientUnits="userSpaceOnUse">
		<stop stop-color="#00C466" offset="0"/>
		<stop stop-color="#008CB4" offset="1"/>
	</linearGradient>
	<path d="m102.02 168.4v-49.939l38.385-21.43 65.221-2.235-50.126-6.708 96.501-56.835 75.4 44.629-18.448 1.397 31.214 5.59 61.678 36.151v49.38l-81.338-23.105 17.469-12.858-23.478-0.279-7.779-22.641-8.013 22.826-25.087 0.304s-1.606-0.513-1.677-1.095c-0.069-0.583 0.233-1.002 0.651-1.281 0.42-0.279 18.379-13.58 18.379-13.58l-29.069-0.093-9.038-27.207-9.224 26.928-28.93 0.326 19.24 14.395s-3.413 1.293-3.763 1.224c-0.349-0.07-25.308-0.292-25.308-0.292l-7.5-22.734-8.036 22.851-24.248 0.139 17.539 13.068-80.615 23.104z" fill="url(#c)"/>
	<linearGradient id="b" x1="101.93" x2="338.12" y1="302.41" y2="302.41" gradientUnits="userSpaceOnUse">
		<stop stop-color="#DEDFE1" offset="0"/>
		<stop stop-color="#E7E6E7" offset="1"/>
	</linearGradient>
	<polygon points="101.93 275.41 101.93 298.61 176.18 329.4 338.12 313.15" fill="url(#b)"/>
	<linearGradient id="a" x1="191.37" x2="401.84" y1="290.83" y2="290.83" gradientUnits="userSpaceOnUse">
		<stop stop-color="#DFDFE2" offset="0"/>
		<stop stop-color="#FFFEFD" offset="1"/>
	</linearGradient>
	<polygon points="371.28 311.14 401.84 297.54 401.84 273.69 317.06 270.52 191.37 276.67 191.37 280.86" fill="url(#a)"/>
	<polygon points="197.24 126.79 200.77 137.67 212.21 137.67 202.96 144.4 206.49 155.28 197.24 148.55 187.98 155.28 191.52 144.4 182.26 137.67 193.7 137.67" fill="#fff"/>
	<polygon points="306.62 126.79 310.15 137.67 321.59 137.67 312.34 144.4 315.87 155.28 306.62 148.55 297.36 155.28 300.9 144.4 291.64 137.67 303.08 137.67" fill="#fff"/>
	<polygon points="252.89 106.4 257.95 121.98 274.33 121.98 261.08 131.61 266.14 147.19 252.89 137.56 239.64 147.19 244.7 131.61 231.45 121.98 247.83 121.98" fill="#fff"/>
	<g fill="#fff">
		<polygon points="113.52 257.1 80.683 261.16 80.543 181.92 112.27 181.92 112.41 195.81 96.569 196.31 96.615 211.92 111.8 211.12 111.78 225.24 96.686 226.36 96.686 244.11 113.52 242.85"/>
		<path d="m119.26 256.27v-74.351h23.758l6.587 40.845 1.292 0.018 6.656-40.862h24.038v69.6l-14.534 0.652 0.139-48.543-0.978 0.048-8.805 49.357-13.976 0.908-9.084-49.242s-0.577-1.152-1.118-0.174l-0.186 50.347-13.789 1.397z"/>
		<path d="m212.75 181.92h-23.619v68.9l15.374-0.559v-27.603l9.597-0.022c12.111-0.373 13.276-13.603 13.276-13.603l0.047-5.591c2.236-21.661-14.675-21.522-14.675-21.522zm-0.839 24.039s-0.139 3.983-3.145 4.611c-3.005 0.629-4.192 0-4.192 0v-16.561s2.862-0.129 3.806 0c1.23 0.169 3.252 0.909 3.531 3.494 0.279 2.586 0 8.456 0 8.456z"/>
		<path d="m254.72 181.87h-5.493c-9.38 0-16.585 7.378-16.585 16.48v35.568c0 9.101 7.604 16.479 16.983 16.479h5.495c9.38 0 16.581-7.378 16.581-16.479v-35.568c0-9.102-7.603-16.48-16.981-16.48zm1.076 53.015c0 2.007-1.628 3.633-3.635 3.633-2.006 0-3.633-1.626-3.633-3.633v-37.303c0-2.007 1.627-3.634 3.633-3.634 2.007 0 3.635 1.627 3.635 3.634v37.303z"/>
		<polygon points="279.04 182.85 278.86 250.96 311.19 252.17 311.19 240.89 294.6 240.19 294.55 182.85"/>
		<polygon points="315.57 252.73 330.38 253.19 330.43 183.22 315.24 183.22"/>
		<path d="m360.85 225.8l-4.017-0.141v-12.532l19.112 0.747 0.466 43.234-6.149-0.466-2.795-6.015-1.212 0.07s-3.54 6.128-13.044 4.823-15.095-6.242-16.305-17.61v-40.25s1.397-13.603 14.907-14.814h9.037s7.641 0.093 11.46 6.429c3.821 6.335 4.101 18.82 4.101 18.82l-15.374-0.466-0.372-8.665s-0.746-3.355-3.681-3.355c-2.936 0-4.612 0.699-4.752 4.473-0.14 3.773-0.047 35.033-0.047 35.033s-0.326 7.127 4.473 7.383c4.798 0.256 4.1-4.332 4.1-4.332l0.092-12.366z"/>
		<path d="m415.08 183.22l-26.554-0.372-7.827 74.724 15 1.63 1.305-12.298 9.876 0.931 1.258 13.045 14.814 2.096-7.872-79.756zm-16.817 51.85l2.66-39.18 1.066-0.078 3.727 39.584-7.453-0.326z"/>
	</g>
		<g fill="#fff">
			<path d="m204.97 308.45c-0.404 0-0.792-0.163-1.074-0.453s-0.436-0.682-0.425-1.086l0.496-19.046-3.975 19.386c-0.144 0.698-0.758 1.199-1.47 1.199h-8.295c-0.712 0-1.326-0.501-1.47-1.198l-3.976-19.389 0.496 19.048c0.011 0.404-0.143 0.796-0.425 1.086s-0.67 0.453-1.074 0.453h-10.292c-0.828 0-1.5-0.672-1.5-1.5v-46.62c0-0.828 0.672-1.5 1.5-1.5h15.258c0.71 0 1.323 0.498 1.468 1.193l4.148 19.828c0.011 0.055 0.021 0.107 0.086 0.581 0.09-0.561 0.114-0.676 0.128-0.739l4.116-19.671c0.145-0.694 0.758-1.192 1.468-1.192h15.105c0.828 0 1.5 0.672 1.5 1.5v46.62c0 0.828-0.672 1.5-1.5 1.5h-10.293z"/>
			<path d="m215.27 260.33v46.62h-10.293l0.938-36.024-7.386 36.024h-8.295l-7.387-36.024 0.939 36.024h-10.293v-46.62h15.258l4.147 19.828c0.019 0.102 0.186 1.348 0.499 3.739 0.312 2.392 0.641 4.788 0.984 7.189 0.262-1.796 0.59-4.021 0.983-6.675 0.394-2.653 0.621-4.122 0.682-4.405l4.117-19.677h15.107m0-2.999h-15.105c-1.42 0-2.646 0.996-2.937 2.386l-2.77 13.241-2.77-13.241c-0.291-1.39-1.517-2.386-2.936-2.386h-15.259c-1.657 0-3 1.343-3 3v46.62c0 1.657 1.343 3 3 3h10.293c0.81 0 1.584-0.327 2.148-0.906 0.566-0.58 0.871-1.363 0.851-2.172l-0.054-2.071 0.564 2.752c0.286 1.395 1.514 2.397 2.939 2.397h8.295c1.425 0 2.652-1.002 2.938-2.397l0.563-2.747-0.054 2.066c-0.021 0.809 0.285 1.592 0.851 2.172 0.564 0.579 1.339 0.906 2.148 0.906h10.293c1.657 0 3-1.343 3-3v-46.62c2e-3 -1.657-1.341-3-2.998-3z"/>
		</g>
		<g fill="#fff">
			<path d="m219.86 308.45c-0.828 0-1.5-0.672-1.5-1.5v-46.62c0-0.828 0.672-1.5 1.5-1.5h10.898c0.828 0 1.5 0.672 1.5 1.5v46.62c0 0.828-0.672 1.5-1.5 1.5h-10.898z"/>
			<path d="m230.76 260.33v46.62h-10.898v-46.62h10.898m0-3h-10.898c-1.657 0-3 1.343-3 3v46.62c0 1.657 1.343 3 3 3h10.898c1.657 0 3-1.343 3-3v-46.62c0-1.657-1.343-3-3-3z"/>
		</g>
		<g fill="#fff">
			<path d="m252.9 308.45c-0.658 0-1.24-0.43-1.434-1.06l-5.141-16.72c0.135 2.871 0.203 5.69 0.203 8.408v7.871c0 0.828-0.672 1.5-1.5 1.5h-9.809c-0.828 0-1.5-0.672-1.5-1.5v-46.62c0-0.828 0.672-1.5 1.5-1.5h11.352c0.655 0 1.234 0.425 1.431 1.05l5.329 16.931c-3e-3 -0.061-6e-3 -0.122-9e-3 -0.182-0.172-3.505-0.259-6.524-0.259-8.973v-7.326c0-0.828 0.672-1.5 1.5-1.5h9.718c0.828 0 1.5 0.672 1.5 1.5v46.62c0 0.828-0.672 1.5-1.5 1.5h-11.381z"/>
			<path d="m264.28 260.33v46.62h-11.383l-9.112-29.638c0.403 3.855 0.711 7.594 0.923 11.217s0.318 7.14 0.318 10.55v7.871h-9.809v-46.62h11.352l9.052 28.759c-0.363-4.844-0.632-9.022-0.803-12.533-0.172-3.511-0.257-6.478-0.257-8.899v-7.326h9.719m0-3.001h-9.718c-1.657 0-3 1.343-3 3v5.868l-2.131-6.769c-0.393-1.25-1.552-2.1-2.861-2.1h-11.352c-1.657 0-3 1.343-3 3v46.62c0 1.657 1.343 3 3 3h9.809c1.657 0 3-1.343 3-3v-5.635l2.004 6.517c0.387 1.259 1.55 2.118 2.867 2.118h11.383c1.657 0 3-1.343 3-3v-46.62c-1e-3 -1.656-1.344-2.999-3.001-2.999z"/>
		</g>
		<g fill="#fff">
			<path d="m283.5 309.57c-3.233 0-6.065-0.557-8.415-1.654-2.406-1.124-4.377-2.844-5.858-5.11-1.06-1.658-1.784-3.827-2.225-6.644-0.419-2.68-0.623-6.776-0.623-12.522 0-5.745 0.204-9.842 0.623-12.522 0.44-2.815 1.165-4.984 2.217-6.63 1.487-2.299 3.461-4.026 5.871-5.141 2.348-1.086 5.177-1.637 8.41-1.637 3.255 0 6.082 0.552 8.401 1.64 2.378 1.116 4.334 2.842 5.815 5.131 1.091 1.658 1.839 3.842 2.281 6.668 0.419 2.683 0.622 6.768 0.622 12.491 0 5.702-0.203 9.783-0.622 12.477-0.442 2.837-1.19 5.025-2.288 6.693-1.453 2.258-3.41 3.98-5.808 5.105-2.34 1.099-5.167 1.655-8.401 1.655z"/>
			<path d="m283.5 259.21c3.047 0 5.635 0.499 7.765 1.498 2.129 0.999 3.86 2.528 5.192 4.587 0.969 1.473 1.654 3.501 2.059 6.085 0.403 2.583 0.604 6.67 0.604 12.26 0 5.57-0.201 9.652-0.604 12.246-0.404 2.593-1.09 4.627-2.059 6.1-1.312 2.039-3.043 3.562-5.192 4.571-2.15 1.009-4.737 1.514-7.765 1.514-3.027 0-5.621-0.505-7.78-1.514-2.16-1.009-3.905-2.532-5.237-4.571-0.929-1.453-1.595-3.471-1.998-6.055-0.404-2.583-0.605-6.68-0.605-12.291 0-5.61 0.201-9.707 0.605-12.29 0.403-2.584 1.069-4.602 1.998-6.055 1.332-2.059 3.077-3.588 5.237-4.587 2.159-0.999 4.753-1.498 7.78-1.498m0-3c-3.452 0-6.494 0.598-9.04 1.775-2.671 1.235-4.857 3.147-6.496 5.68-1.175 1.838-1.972 4.196-2.443 7.222-0.432 2.757-0.642 6.929-0.642 12.753s0.21 9.997 0.642 12.755c0.472 3.025 1.269 5.383 2.435 7.206 1.651 2.53 3.832 4.431 6.495 5.674 2.55 1.191 5.595 1.796 9.05 1.796 3.456 0 6.497-0.604 9.039-1.798 2.657-1.247 4.824-3.152 6.44-5.663 1.201-1.826 2.024-4.209 2.5-7.262 0.432-2.772 0.641-6.928 0.641-12.708 0-5.801-0.21-9.963-0.641-12.723-0.476-3.042-1.299-5.42-2.517-7.271-1.623-2.509-3.788-4.418-6.424-5.654-2.521-1.182-5.562-1.782-9.039-1.782z"/>
		</g>
		<g fill="#fff">
			<path d="m321.54 308.45c-0.666 0-1.253-0.439-1.439-1.079-0.305-1.042-0.53-2.145-0.67-3.279-0.138-1.115-0.208-2.323-0.208-3.59 0-0.762 0.02-1.685 0.062-2.767 0.039-1.029 0.06-1.702 0.06-2.017 0-3.296-0.528-4.531-0.843-4.974-0.445-0.626-1.389-0.943-2.804-0.943h-0.74v17.148c0 0.828-0.672 1.5-1.5 1.5h-10.777c-0.828 0-1.5-0.672-1.5-1.5v-46.62c0-0.828 0.672-1.5 1.5-1.5h12.261c4.156 0 7.117 0.193 9.051 0.59 2.044 0.421 3.745 1.169 5.058 2.223 1.53 1.252 2.681 2.806 3.429 4.625 0.729 1.772 1.098 3.878 1.098 6.263 0 2.912-0.53 5.415-1.575 7.439-0.727 1.406-1.73 2.647-2.996 3.711 2.572 2.115 3.955 5.686 4.116 10.658l1e-3 0.2c0.018 0.541 0.04 1.396 0.06 2.516 0.095 6.24 1.321 8.147 2.043 8.729 0.496 0.398 0.685 1.066 0.475 1.667-0.212 0.6-0.779 1.001-1.415 1.001h-12.747zm-6.583-30.156c1.749-0.016 2.998-0.34 3.617-0.939 0.622-0.603 0.951-1.82 0.951-3.523 0-1.061-0.157-2.465-0.907-3.134-0.438-0.391-1.43-0.857-3.661-0.874v8.47z"/>
			<path d="m314.94 257.33h-12.261c-1.657 0-3 1.343-3 3v46.62c0 1.657 1.343 3 3 3h10.777c1.657 0 3-1.343 3-3v-15.604c0.562 0.075 0.788 0.221 0.823 0.27 0.021 0.03 0.563 0.831 0.563 4.103 0 0.189-0.01 0.684-0.059 1.961-0.041 1.073-0.062 2.024-0.062 2.822 0 1.328 0.073 2.598 0.219 3.774 0.15 1.214 0.392 2.396 0.719 3.516 0.374 1.279 1.547 2.158 2.88 2.158h12.744c1.272 0 2.406-0.803 2.829-2.003 0.423-1.199 0.043-2.536-0.947-3.334-0.057-0.045-1.388-1.189-1.484-7.578-0.021-1.107-0.041-1.952-0.06-2.547v-0.102c0-0.032-1e-3 -0.065-2e-3 -0.098-0.15-4.631-1.304-8.178-3.44-10.601 0.863-0.915 1.583-1.927 2.153-3.031 1.157-2.238 1.743-4.973 1.743-8.127 0-2.581-0.407-4.88-1.21-6.832-0.845-2.054-2.142-3.806-3.856-5.208-1.521-1.222-3.437-2.07-5.714-2.539-2.036-0.417-5.096-0.62-9.355-0.62z"/>
		</g>
		<g fill="#0E7F6A">
			<path d="m173.49 306.95v-46.62h15.258l4.147 19.828c0.019 0.102 0.186 1.348 0.499 3.739 0.312 2.392 0.641 4.788 0.984 7.189 0.262-1.796 0.59-4.021 0.983-6.675 0.394-2.653 0.621-4.122 0.682-4.405l4.117-19.677h15.105v46.62h-10.293l0.938-36.024-7.386 36.024h-8.295l-7.387-36.024 0.939 36.024h-10.291z"/>
			<path d="m219.86 306.95v-46.62h10.898v46.62h-10.898z"/>
			<path d="m235.22 306.95v-46.62h11.352l9.052 28.759c-0.363-4.844-0.632-9.022-0.803-12.533-0.172-3.511-0.257-6.478-0.257-8.899v-7.326h9.718v46.62h-11.383l-9.112-29.638c0.403 3.855 0.711 7.594 0.923 11.217s0.318 7.14 0.318 10.55v7.871h-9.808z"/>
			<path d="m267.88 283.64c0-5.61 0.201-9.707 0.605-12.29 0.403-2.584 1.069-4.602 1.998-6.055 1.332-2.059 3.077-3.588 5.237-4.587 2.159-0.999 4.753-1.498 7.78-1.498 3.047 0 5.635 0.499 7.765 1.498 2.129 0.999 3.86 2.528 5.192 4.587 0.969 1.473 1.654 3.501 2.059 6.085 0.403 2.583 0.604 6.67 0.604 12.26 0 5.57-0.201 9.652-0.604 12.246-0.404 2.593-1.09 4.627-2.059 6.1-1.312 2.039-3.043 3.562-5.192 4.571-2.15 1.009-4.737 1.514-7.765 1.514-3.027 0-5.621-0.505-7.78-1.514-2.16-1.009-3.905-2.532-5.237-4.571-0.929-1.453-1.595-3.471-1.998-6.055-0.404-2.583-0.605-6.68-0.605-12.291zm20.102 4.208v-8.416c0-5.166-0.328-8.359-0.984-9.581-0.656-1.221-1.842-1.831-3.557-1.831-1.676 0-2.836 0.625-3.482 1.877-0.646 1.251-0.969 4.43-0.969 9.535v8.416c0 5.046 0.322 8.209 0.969 9.491 0.646 1.281 1.826 1.922 3.542 1.922 1.695 0 2.865-0.625 3.512-1.877 0.645-1.251 0.969-4.43 0.969-9.536z"/>
			<path d="m302.68 306.95v-46.62h12.261c4.016 0 6.933 0.186 8.749 0.56s3.289 1.015 4.42 1.923c1.332 1.09 2.325 2.432 2.981 4.026 0.655 1.594 0.984 3.491 0.984 5.691 0 2.684-0.47 4.934-1.408 6.75-0.939 1.816-2.397 3.311-4.374 4.48 3.37 1.494 5.147 5.036 5.328 10.626v0.151c0.02 0.586 0.04 1.434 0.06 2.543 0.08 5.248 0.948 8.537 2.603 9.869h-12.744c-0.283-0.969-0.49-1.982-0.621-3.042-0.131-1.059-0.196-2.195-0.196-3.406 0-0.746 0.02-1.649 0.061-2.709 0.04-1.06 0.061-1.751 0.061-2.074 0-2.846-0.374-4.793-1.12-5.843-0.747-1.049-2.089-1.574-4.026-1.574h-2.24v18.648h-10.779zm10.777-27.216c0.182 0 0.418 0.011 0.711 0.03 0.293 0.021 0.51 0.03 0.651 0.03 2.26 0 3.859-0.454 4.798-1.362 0.938-0.908 1.408-2.441 1.408-4.602 0-1.997-0.47-3.415-1.408-4.253-0.939-0.837-2.538-1.256-4.798-1.256-0.142 0-0.358 0.01-0.651 0.03s-0.529 0.03-0.711 0.03v11.353z"/>
		</g>
</svg>
