<?xml version="1.0" standalone="no"?>
<!DOCTYPE svg PUBLIC "-//W3C//DTD SVG 20010904//EN"
 "http://www.w3.org/TR/2001/REC-SVG-20010904/DTD/svg10.dtd">
<svg version="1.0" xmlns="http://www.w3.org/2000/svg"
 width="3070.000000pt" height="3070.000000pt" viewBox="0 0 3070.000000 3070.000000"
 preserveAspectRatio="xMidYMid meet">
<metadata>
Created by potrace 1.11, written by Peter Selinger 2001-2013
</metadata>
<g transform="translate(0.000000,3070.000000) scale(0.100000,-0.100000)"
fill="#000000" stroke="none">
<path d="M15352 26629 c-9 -11 -26 -25 -37 -30 -19 -9 -51 -27 -171 -99 -33
-19 -63 -37 -69 -40 -5 -3 -36 -21 -68 -40 -69 -42 -117 -70 -218 -128 -40
-24 -112 -66 -159 -94 -47 -28 -94 -56 -105 -62 -11 -7 -46 -27 -78 -46 -31
-19 -70 -42 -85 -50 -32 -19 -132 -78 -170 -101 -15 -9 -67 -40 -117 -69 -49
-29 -110 -65 -133 -79 -117 -70 -402 -238 -477 -281 -16 -9 -52 -31 -80 -48
-50 -31 -172 -103 -223 -132 -46 -27 -185 -109 -252 -150 -39 -24 -91 -54
-201 -118 -41 -24 -96 -57 -124 -74 -27 -17 -59 -36 -70 -42 -18 -11 -78 -46
-170 -101 -19 -11 -71 -42 -117 -68 -46 -26 -121 -71 -168 -99 -47 -28 -94
-56 -105 -62 -20 -12 -103 -61 -173 -103 -21 -12 -57 -33 -82 -48 -25 -14 -62
-36 -82 -48 -21 -12 -74 -43 -118 -69 -44 -27 -116 -69 -160 -95 -44 -27 -96
-57 -114 -68 -19 -11 -60 -36 -93 -55 -32 -19 -67 -39 -78 -46 -11 -6 -42 -25
-70 -42 -27 -17 -86 -52 -130 -77 -44 -25 -96 -56 -116 -68 -20 -12 -109 -65
-198 -117 -88 -52 -200 -118 -248 -147 -49 -29 -97 -57 -108 -62 -11 -6 -45
-26 -75 -45 -30 -19 -93 -57 -139 -83 -84 -48 -102 -59 -208 -123 -32 -19 -67
-39 -78 -46 -11 -6 -58 -34 -105 -62 -47 -28 -121 -71 -165 -97 -44 -25 -87
-50 -95 -55 -38 -25 -152 -93 -225 -135 -44 -25 -116 -68 -160 -95 -44 -28
-91 -56 -105 -63 -14 -7 -51 -28 -83 -47 -33 -19 -74 -44 -93 -55 -18 -11 -59
-36 -91 -55 -32 -19 -67 -39 -78 -46 -11 -6 -58 -34 -105 -62 -47 -28 -121
-71 -165 -97 -44 -25 -116 -68 -160 -95 -44 -27 -116 -69 -160 -95 -44 -25
-93 -54 -110 -64 -38 -23 -185 -109 -295 -173 -47 -28 -121 -72 -165 -98 -68
-41 -189 -112 -285 -167 -14 -8 -45 -27 -70 -43 -25 -16 -81 -50 -125 -75 -44
-25 -96 -55 -117 -68 -95 -58 -155 -92 -171 -99 -9 -4 -23 -12 -30 -18 -13
-12 -30 -22 -207 -125 -63 -37 -155 -91 -205 -121 -49 -29 -121 -72 -160 -94
-38 -23 -108 -64 -155 -92 -47 -28 -103 -62 -125 -74 -22 -13 -56 -33 -75 -44
-19 -11 -53 -31 -75 -44 -22 -14 -74 -44 -115 -68 -93 -52 -140 -83 -162 -105
-17 -16 -18 -115 -18 -1797 0 -1105 -4 -1787 -10 -1796 -8 -13 -113 -15 -845
-15 l-835 0 0 -3364 0 -3363 33 6 c17 4 126 16 240 26 114 11 218 22 230 25
12 2 114 12 227 20 113 9 237 20 275 25 39 6 160 17 270 25 110 8 241 20 292
27 74 9 95 9 107 -2 14 -11 16 -112 16 -920 l0 -909 26 -20 c15 -12 32 -21 38
-21 6 0 34 -11 61 -25 28 -13 54 -25 59 -25 5 0 37 -13 70 -29 125 -59 153
-71 161 -71 4 0 26 -9 49 -19 39 -19 119 -54 394 -171 64 -28 135 -59 157 -70
22 -11 69 -31 105 -46 36 -14 88 -37 117 -50 28 -13 55 -24 58 -24 3 0 32 -12
63 -26 96 -44 134 -61 212 -94 41 -17 89 -38 105 -45 17 -8 64 -28 105 -45 41
-17 89 -37 105 -45 17 -7 68 -30 115 -50 47 -20 99 -43 115 -50 119 -55 166
-75 173 -75 4 0 25 -9 47 -20 22 -11 94 -42 160 -70 66 -28 138 -60 161 -71
23 -10 45 -19 49 -19 4 0 31 -11 59 -25 28 -13 105 -47 171 -75 66 -28 138
-59 160 -70 22 -11 74 -33 115 -50 41 -17 89 -38 105 -45 17 -8 64 -28 105
-45 41 -17 93 -39 115 -50 71 -33 349 -152 390 -167 21 -8 51 -21 65 -28 14
-8 59 -28 100 -45 41 -17 93 -40 115 -50 119 -54 154 -70 161 -70 4 0 26 -9
48 -19 23 -11 95 -42 161 -71 217 -93 349 -151 391 -171 23 -10 45 -19 49 -19
4 0 26 -9 49 -19 23 -11 100 -45 171 -76 72 -31 141 -62 155 -69 14 -8 43 -19
65 -26 22 -7 45 -16 50 -20 6 -5 75 -36 155 -69 80 -34 159 -68 175 -76 17 -8
89 -39 160 -70 72 -31 148 -65 171 -76 23 -10 45 -19 49 -19 4 0 26 -9 49 -19
76 -36 151 -69 211 -94 200 -85 306 -131 350 -153 28 -13 54 -24 59 -24 5 0
34 -12 65 -26 99 -45 135 -61 201 -89 36 -15 88 -38 117 -51 28 -13 55 -24 59
-24 4 0 32 -12 63 -26 78 -35 105 -47 191 -84 41 -18 93 -40 115 -51 22 -10
74 -32 115 -49 41 -17 89 -38 105 -45 17 -8 64 -28 105 -46 90 -38 170 -74
226 -100 23 -10 45 -19 49 -19 4 0 31 -11 59 -24 28 -14 105 -48 171 -76 66
-28 167 -72 225 -97 58 -25 132 -57 165 -71 55 -23 105 -45 210 -92 22 -10 69
-30 105 -45 36 -15 83 -35 105 -45 22 -10 74 -33 115 -50 41 -17 93 -39 115
-49 22 -10 69 -31 105 -46 36 -16 83 -36 105 -46 22 -10 74 -33 115 -50 83
-34 152 -65 190 -85 100 -53 78 -53 175 -1 34 19 88 43 195 87 41 18 98 42
125 55 28 12 93 41 145 63 174 74 355 153 385 167 17 7 64 28 105 45 41 17 93
40 115 50 22 10 74 33 115 50 41 18 89 38 105 46 17 7 64 27 105 44 41 17 93
39 115 50 22 11 74 34 115 51 105 44 136 57 207 90 34 16 65 29 70 29 4 0 26
9 48 20 22 11 94 42 160 70 66 28 127 54 135 59 8 4 56 25 105 46 197 83 322
136 360 155 22 10 74 33 115 50 41 17 89 37 105 44 17 8 64 28 105 46 41 17
93 40 115 50 22 10 74 33 115 50 41 17 89 38 105 45 17 8 64 28 105 46 41 17
93 39 115 48 22 10 94 42 160 70 66 29 138 61 160 72 22 10 44 19 50 19 5 0
32 11 60 24 51 24 185 83 400 175 66 28 138 60 160 70 22 11 63 28 90 39 129
53 222 95 242 108 12 8 28 14 35 14 7 0 35 11 63 24 27 13 79 36 115 51 36 15
83 36 105 46 22 9 90 39 150 65 61 26 166 71 235 101 69 30 148 64 175 75 77
33 135 58 190 83 28 13 77 34 110 48 252 107 305 130 340 146 22 11 69 32 105
47 97 40 311 133 345 149 17 7 64 28 105 45 41 17 93 39 115 49 22 11 74 33
115 51 41 17 89 38 105 45 17 8 64 29 105 46 105 44 136 57 207 90 34 16 65
29 69 29 4 0 25 9 48 19 23 11 95 43 161 71 66 28 138 59 160 70 22 10 74 33
115 50 41 17 89 37 105 45 17 7 68 30 115 50 47 20 103 45 126 56 23 10 44 19
48 19 6 0 54 20 151 65 17 7 68 30 115 50 47 20 99 42 115 50 17 7 64 28 105
45 41 18 93 40 115 50 22 10 74 32 115 50 41 17 89 38 105 46 17 7 64 28 105
45 41 17 89 37 105 44 235 102 296 129 330 145 22 10 57 24 77 30 73 22 68
-42 68 957 -1 789 1 898 14 912 14 13 27 13 103 3 49 -7 180 -19 293 -27 113
-8 237 -19 275 -25 39 -5 162 -17 275 -25 113 -9 232 -20 265 -25 49 -8 338
-37 435 -43 l25 -2 0 3358 0 3357 -832 3 c-578 1 -835 5 -843 13 -7 7 -10 531
-10 1787 0 1236 -3 1783 -10 1799 -6 13 -45 42 -88 66 -42 24 -113 65 -157 91
-188 113 -254 152 -325 192 -41 23 -77 46 -80 50 -3 5 -21 15 -40 24 -19 9
-55 29 -80 45 -25 16 -58 36 -75 45 -16 8 -53 30 -82 48 -29 17 -101 60 -160
95 -59 34 -148 87 -198 117 -49 30 -126 75 -170 100 -44 25 -132 77 -195 116
-63 38 -135 80 -160 94 -25 14 -63 37 -85 50 -37 23 -73 44 -144 85 -14 8 -52
31 -84 50 -64 39 -90 54 -204 121 -43 25 -116 68 -163 96 -47 28 -125 74 -175
103 -49 29 -103 61 -120 71 -16 10 -61 36 -100 59 -38 22 -115 68 -170 100
-55 33 -131 78 -170 101 -38 22 -110 65 -160 94 -49 30 -137 82 -195 115 -58
34 -127 75 -155 92 -27 17 -68 42 -90 54 -91 53 -112 65 -150 89 -22 13 -60
36 -85 50 -25 14 -97 56 -160 94 -63 39 -152 91 -198 118 -46 26 -98 57 -117
68 -88 53 -275 164 -320 189 -19 11 -99 59 -173 103 -21 12 -53 31 -72 42 -19
12 -53 32 -75 46 -22 14 -58 34 -80 46 -22 11 -60 33 -85 49 -25 16 -78 48
-119 72 -40 24 -94 55 -120 70 -25 15 -62 37 -81 48 -19 11 -53 31 -75 45 -22
13 -60 36 -85 50 -25 15 -62 36 -82 48 -20 12 -86 51 -145 86 -59 35 -124 73
-143 85 -54 33 -69 42 -158 93 -87 51 -122 71 -193 115 -24 14 -81 48 -127 75
-46 26 -99 57 -117 68 -55 33 -149 88 -170 101 -22 12 -177 103 -244 143 -119
71 -137 81 -151 87 -8 4 -22 13 -30 20 -8 6 -31 21 -50 32 -44 25 -206 119
-242 141 -71 44 -146 87 -168 98 -14 7 -54 31 -89 53 -34 22 -64 40 -66 40 -2
0 -32 18 -66 40 -35 21 -95 58 -134 80 -38 22 -92 54 -120 70 -27 16 -81 48
-120 70 -38 22 -99 59 -134 80 -34 22 -65 40 -68 40 -3 0 -36 19 -72 43 -36
23 -77 48 -91 55 -14 7 -41 23 -62 35 -20 12 -56 34 -80 48 -48 29 -170 101
-363 214 -44 25 -105 62 -135 81 -30 19 -68 41 -85 49 -16 9 -46 26 -67 38
-76 46 -153 92 -163 97 -5 3 -36 21 -68 40 -100 59 -124 74 -194 114 -37 21
-81 49 -96 62 -35 30 -72 31 -95 3z m122 -836 c33 -21 73 -45 88 -53 31 -17
158 -91 227 -132 25 -15 66 -39 91 -53 25 -14 63 -37 85 -50 48 -28 85 -50
151 -88 27 -15 67 -39 89 -52 22 -13 51 -30 65 -37 14 -7 49 -27 77 -45 29
-19 72 -44 95 -57 24 -13 81 -46 128 -74 47 -28 101 -60 120 -70 19 -10 82
-46 140 -81 58 -34 114 -67 125 -73 11 -6 58 -34 105 -61 47 -27 99 -57 115
-67 17 -9 53 -31 80 -49 28 -17 64 -38 80 -46 17 -8 55 -30 85 -50 30 -19 69
-41 85 -49 17 -9 51 -28 77 -43 54 -32 180 -107 242 -143 23 -14 80 -47 127
-73 46 -26 102 -59 124 -72 22 -14 76 -45 120 -70 44 -25 98 -57 120 -70 22
-14 60 -36 85 -50 25 -14 63 -37 85 -50 22 -14 77 -46 123 -72 46 -27 91 -53
100 -58 9 -6 64 -37 120 -70 107 -62 135 -78 266 -155 42 -25 96 -56 120 -70
24 -14 77 -44 117 -68 172 -100 266 -156 301 -176 33 -19 72 -42 234 -136 24
-14 74 -42 111 -64 169 -97 223 -131 223 -141 0 -9 -64 -14 -222 -19 -123 -4
-304 -13 -403 -21 -99 -8 -277 -17 -395 -21 -118 -4 -225 -11 -237 -15 -27
-10 -30 -36 -5 -43 62 -18 203 -47 274 -56 46 -5 99 -15 118 -20 19 -6 87 -19
150 -30 262 -43 358 -60 420 -74 36 -9 92 -18 125 -22 33 -4 70 -11 83 -15 13
-5 82 -18 154 -29 72 -12 135 -23 140 -26 5 -3 64 -14 131 -24 67 -10 133 -23
147 -28 14 -5 54 -13 90 -17 36 -4 92 -13 125 -21 33 -7 94 -18 134 -25 72
-11 138 -42 316 -150 17 -10 68 -40 114 -66 47 -26 105 -60 130 -75 25 -15 60
-34 76 -43 17 -9 55 -31 85 -50 30 -20 69 -42 85 -50 17 -8 53 -29 80 -46 49
-31 84 -52 157 -93 34 -20 121 -71 179 -106 14 -8 65 -37 113 -65 49 -27 103
-59 122 -70 41 -25 193 -112 247 -143 23 -12 44 -26 47 -30 3 -4 21 -15 40
-25 19 -9 53 -28 75 -42 22 -13 59 -34 83 -46 23 -12 45 -25 48 -30 3 -5 20
-16 37 -25 18 -8 50 -26 72 -39 51 -31 128 -75 169 -97 18 -9 38 -23 45 -32 8
-9 21 -16 31 -16 10 0 23 -7 30 -15 7 -8 31 -24 54 -35 41 -20 50 -25 117 -67
19 -13 42 -23 50 -23 7 0 27 -11 43 -25 16 -14 35 -25 42 -25 7 0 25 -10 41
-22 31 -26 61 -43 114 -69 19 -10 41 -25 49 -33 7 -9 18 -16 25 -16 8 0 27
-11 43 -25 17 -14 36 -25 44 -25 8 0 23 -8 34 -18 10 -10 34 -24 52 -31 17 -7
32 -17 32 -22 0 -4 19 -17 43 -29 73 -36 112 -59 122 -73 6 -8 22 -17 37 -20
15 -4 33 -13 40 -20 7 -7 28 -19 46 -26 18 -8 37 -22 43 -32 5 -11 19 -19 29
-19 11 0 28 -8 39 -19 10 -10 35 -24 55 -31 20 -6 36 -18 36 -26 0 -8 9 -14
21 -14 53 0 80 -44 34 -56 -19 -5 -31 0 -48 18 -14 16 -33 24 -52 24 -21 -1
-33 5 -40 21 -10 24 -65 36 -102 22 -19 -7 -23 -5 -23 10 0 11 6 21 13 24 7 2
8 8 3 13 -5 5 -11 4 -13 -3 -3 -7 -16 -13 -29 -13 -17 0 -24 -6 -24 -20 0 -15
-7 -20 -25 -20 -20 0 -25 -5 -25 -25 0 -24 -2 -25 -70 -25 -68 0 -70 1 -70 25
0 20 -5 25 -25 25 -20 0 -25 -5 -25 -26 0 -21 -4 -25 -22 -22 -15 2 -24 11
-26 26 -2 14 -10 22 -23 22 -14 0 -19 7 -19 25 0 20 -5 25 -25 25 -20 0 -25
-5 -25 -25 0 -23 -3 -25 -50 -25 -38 0 -50 -4 -50 -15 0 -9 -9 -15 -25 -15
-16 0 -25 6 -25 15 0 8 -9 15 -20 15 -11 0 -20 5 -20 10 0 6 -11 10 -25 10
-22 0 -25 -4 -25 -35 l0 -35 -70 0 c-68 0 -70 1 -70 25 0 20 5 25 25 25 14 0
25 5 25 10 0 6 -11 10 -25 10 -14 0 -25 -4 -25 -10 0 -5 -11 -10 -25 -10 -20
0 -25 -5 -25 -25 0 -23 -3 -25 -50 -25 -43 0 -50 -3 -50 -20 0 -13 -7 -20 -20
-20 -13 0 -20 7 -20 20 0 15 -7 20 -25 20 -22 0 -25 4 -25 35 0 28 -4 35 -20
35 -11 0 -20 -4 -20 -10 0 -5 -22 -10 -50 -10 -43 0 -50 -3 -50 -20 0 -15 7
-20 25 -20 20 0 25 -5 25 -25 0 -27 -5 -28 -62 -19 -36 6 -38 8 -38 45 l0 39
-45 0 c-38 0 -45 -3 -45 -20 0 -13 7 -20 20 -20 15 0 20 -7 20 -25 0 -18 -5
-25 -20 -25 -13 0 -20 7 -20 20 0 18 -7 20 -70 20 -63 0 -70 -2 -70 -20 0 -21
-9 -24 -59 -14 -17 4 -31 13 -31 20 0 11 -18 14 -75 14 -60 0 -75 -3 -75 -15
0 -9 -9 -15 -25 -15 -16 0 -25 6 -25 15 0 8 -9 15 -20 15 -15 0 -20 7 -20 25
0 14 5 25 10 25 16 0 11 37 -6 44 -9 3 -36 6 -60 6 -40 0 -44 -2 -44 -25 0
-20 5 -25 25 -25 20 0 25 -5 25 -25 0 -23 -4 -25 -45 -25 -45 0 -45 0 -45 35
0 32 -2 35 -30 35 -16 0 -30 5 -30 10 0 6 -9 10 -20 10 -13 0 -20 -7 -20 -20
0 -13 7 -20 20 -20 15 0 20 -7 20 -25 0 -23 -4 -25 -45 -25 -25 0 -45 -4 -45
-10 0 -19 -39 -10 -45 10 -6 20 -45 29 -45 10 0 -5 -7 -10 -15 -10 -9 0 -15
-9 -15 -25 0 -14 -4 -25 -10 -25 -5 0 -10 5 -10 10 0 6 -7 10 -15 10 -8 0 -15
7 -15 15 0 10 -10 15 -30 15 -25 0 -30 -4 -30 -25 0 -21 -5 -25 -30 -25 -25 0
-30 4 -30 25 0 24 -2 25 -65 25 -51 0 -65 -3 -65 -15 0 -8 -8 -15 -17 -15 -10
0 -28 -3 -40 -6 -19 -5 -23 -2 -23 15 0 12 6 21 15 21 9 0 15 9 15 25 0 20 5
25 25 25 20 0 25 5 25 25 0 23 -4 25 -40 25 -36 0 -40 -2 -40 -25 0 -14 -4
-25 -10 -25 -5 0 -10 11 -10 25 0 20 -5 25 -25 25 -20 0 -25 -5 -25 -25 0 -16
6 -25 15 -25 9 0 15 -9 15 -25 0 -14 -4 -25 -10 -25 -5 0 -10 -7 -10 -15 0 -9
-9 -15 -25 -15 -14 0 -25 -4 -25 -10 0 -5 -16 -10 -35 -10 -19 0 -35 5 -35 10
0 6 -7 10 -15 10 -8 0 -15 7 -15 15 0 9 -9 15 -25 15 -20 0 -25 -5 -25 -25 0
-22 -4 -25 -35 -25 -31 0 -35 3 -35 25 0 20 -5 25 -24 25 -17 0 -26 -7 -30
-25 -5 -18 -13 -25 -31 -25 -21 0 -25 5 -25 30 l0 29 -99 -2 -99 -1 -6 -28
c-5 -23 -11 -28 -36 -28 -25 0 -30 4 -30 25 0 14 -4 25 -10 25 -5 0 -10 11
-10 25 0 18 -5 25 -20 25 -15 0 -20 -7 -20 -25 0 -22 -4 -25 -40 -25 -36 0
-40 3 -40 25 0 18 -5 25 -20 25 -15 0 -20 -7 -20 -25 0 -25 -1 -25 -85 -25
-84 0 -85 0 -85 -25 0 -20 -5 -25 -25 -25 -21 0 -25 5 -25 30 0 26 -3 30 -29
30 -39 0 -61 -9 -61 -26 0 -8 -7 -14 -15 -14 -8 0 -15 -4 -15 -10 0 -15 -122
-12 -142 4 -31 23 -22 46 17 46 45 0 47 25 4 34 -51 10 -59 8 -59 -19 0 -21
-5 -25 -30 -25 -25 0 -30 -4 -30 -25 0 -23 -4 -25 -41 -25 -23 0 -47 7 -55 15
-21 20 -84 20 -84 0 0 -12 -14 -15 -70 -15 -68 0 -70 -1 -70 -25 0 -23 -3 -25
-50 -25 -47 0 -50 2 -50 25 0 23 -4 25 -45 25 -41 0 -45 -2 -45 -25 0 -23 -4
-25 -45 -25 -41 0 -45 2 -45 25 l0 25 -120 0 -120 0 0 -25 c0 -20 -5 -25 -25
-25 -20 0 -25 5 -25 25 l0 25 -120 0 -120 0 0 -31 c0 -31 -1 -31 -37 -25 -21
3 -73 6 -115 6 l-78 0 0 50 c0 47 -2 50 -25 50 -20 0 -25 -5 -25 -25 0 -23 -3
-25 -50 -25 -47 0 -50 -2 -50 -25 0 -20 -5 -25 -25 -25 -20 0 -25 5 -25 25 0
23 -4 25 -45 25 -41 0 -45 -2 -45 -25 0 -23 -4 -25 -45 -25 -41 0 -45 2 -45
25 0 20 -5 25 -25 25 -20 0 -25 -5 -25 -25 0 -20 -5 -25 -25 -25 -20 0 -25 5
-25 25 0 24 -2 25 -70 25 -68 0 -70 -1 -70 -25 0 -20 -5 -25 -25 -25 -20 0
-25 5 -25 25 0 23 -4 25 -45 25 -41 0 -45 -2 -45 -25 0 -20 -5 -25 -25 -25
-20 0 -25 5 -25 25 0 23 -3 25 -50 25 -47 0 -50 -2 -50 -25 0 -18 -5 -25 -20
-25 -15 0 -20 7 -20 25 0 23 -4 25 -45 25 -39 0 -45 -3 -51 -25 -6 -25 -28
-33 -39 -15 -3 6 -17 10 -31 10 -21 0 -24 4 -24 40 0 36 -2 40 -25 40 -20 0
-25 -5 -25 -25 0 -20 -5 -25 -25 -25 -20 0 -25 -5 -25 -25 0 -18 -5 -25 -20
-25 -15 0 -20 7 -20 25 0 16 -6 25 -16 25 -18 0 -44 -23 -44 -39 0 -6 -18 -11
-40 -11 -36 0 -40 3 -40 25 0 20 -5 25 -25 25 -16 0 -25 6 -25 15 0 8 -9 15
-20 15 -11 0 -20 5 -20 10 0 6 -13 10 -30 10 -25 0 -30 -4 -30 -24 0 -21 -6
-25 -46 -31 -34 -5 -48 -12 -51 -26 -3 -10 -14 -19 -24 -19 -15 0 -19 7 -19
35 0 28 -4 35 -20 35 -11 0 -20 7 -20 15 0 9 -9 15 -25 15 -20 0 -25 -5 -25
-25 0 -20 5 -25 25 -25 20 0 25 -5 25 -25 0 -23 -4 -25 -44 -25 -25 0 -48 5
-51 10 -3 6 -15 10 -26 10 -10 0 -19 7 -19 15 0 9 -10 15 -26 15 -27 0 -54
-20 -54 -41 0 -8 -15 -10 -55 -5 -38 4 -64 2 -83 -7 -25 -12 -206 -16 -434 -9
-57 2 -58 2 -58 32 0 28 -2 30 -40 30 -37 0 -40 -2 -40 -29 0 -26 -3 -29 -47
-33 -83 -8 -390 0 -411 11 -13 7 -21 25 -26 61 -4 32 -12 50 -20 50 -17 0 -26
22 -26 66 0 41 -15 74 -34 74 -9 0 -16 22 -22 63 -7 50 -12 62 -26 61 -15 -2
-18 6 -18 40 0 56 -10 86 -26 86 -21 0 -18 -76 5 -108 10 -15 22 -49 26 -76 3
-27 15 -65 26 -85 10 -20 19 -47 19 -61 0 -14 9 -44 19 -66 10 -23 22 -57 26
-75 11 -56 38 -128 49 -131 22 -6 1033 10 1074 17 38 6 42 5 42 -13 0 -12 -4
-24 -10 -27 -5 -3 -10 -17 -10 -30 0 -19 -10 -30 -42 -46 -24 -12 -45 -24 -48
-28 -3 -3 -43 -32 -90 -63 -47 -31 -96 -66 -109 -78 -13 -11 -27 -20 -31 -20
-3 0 -15 -8 -26 -18 -22 -20 -47 -38 -124 -88 -30 -20 -65 -45 -77 -56 -12
-12 -31 -26 -41 -32 -10 -6 -34 -21 -53 -34 -19 -12 -54 -30 -79 -39 -51 -20
-171 -106 -184 -133 -5 -11 -3 -30 7 -51 9 -19 22 -56 31 -84 21 -71 44 -142
65 -200 10 -27 33 -95 50 -150 18 -55 38 -116 46 -135 7 -19 28 -82 45 -140
18 -58 44 -131 57 -164 13 -32 22 -65 19 -72 -8 -22 -50 -17 -73 9 -12 12 -36
32 -55 45 -144 100 -266 187 -403 288 -44 32 -93 67 -110 78 -16 10 -32 21
-35 25 -3 3 -18 15 -35 27 -59 41 -157 109 -170 118 -8 6 -38 -9 -95 -50 -45
-32 -108 -77 -140 -99 -31 -22 -84 -59 -116 -83 -32 -24 -135 -97 -229 -164
-162 -115 -200 -143 -253 -188 -27 -23 -60 -26 -68 -7 -2 7 7 47 21 88 15 41
42 121 60 179 19 58 40 119 45 135 6 17 27 77 45 135 19 58 40 119 46 135 6
17 20 57 30 90 10 33 27 85 38 115 36 105 37 117 0 151 -48 45 -132 98 -189
120 -27 10 -58 27 -69 36 -10 10 -34 28 -52 41 -19 13 -76 53 -127 90 -52 37
-104 74 -116 82 -25 16 -83 57 -132 92 -91 65 -130 91 -151 99 -25 9 -64 84
-56 107 6 14 57 16 82 2 11 -5 226 -10 532 -10 l514 -2 11 44 c6 24 15 52 21
63 6 11 13 40 17 65 4 24 13 51 21 60 8 8 18 44 24 79 6 35 17 71 24 80 8 9
17 36 21 61 4 25 15 60 26 78 23 38 27 112 6 112 -9 0 -16 -18 -21 -55 -4 -35
-11 -55 -20 -55 -17 0 -25 -23 -32 -97 -5 -51 -9 -63 -23 -63 -21 0 -30 -19
-30 -65 0 -19 -6 -38 -13 -42 -18 -12 -37 -59 -37 -94 0 -18 -6 -32 -16 -36
-8 -3 -20 -17 -25 -30 -14 -38 -53 -28 -57 15 -3 30 -6 32 -43 32 -36 0 -39
-2 -39 -29 l0 -28 -112 -5 c-62 -3 -274 -4 -470 -3 -292 1 -358 -1 -358 -12 0
-7 -11 -13 -25 -13 -18 0 -25 5 -25 20 0 11 5 20 10 20 6 0 10 11 10 25 0 22
-4 25 -35 25 -35 0 -35 0 -35 -45 l0 -45 -70 0 -70 0 0 45 c0 41 -2 45 -25 45
-23 0 -25 -4 -25 -45 l0 -45 -45 0 c-41 0 -45 -2 -45 -25 0 -20 -5 -25 -25
-25 -20 0 -25 5 -25 25 0 20 -5 25 -25 25 -20 0 -25 -5 -25 -25 0 -20 -5 -25
-25 -25 -20 0 -25 5 -25 24 0 22 -3 23 -65 23 -56 -1 -65 -3 -65 -19 0 -10 -6
-18 -12 -18 -7 0 -30 -3 -50 -6 -36 -6 -38 -5 -38 20 0 21 -5 26 -25 26 -18 0
-25 5 -25 20 0 15 -7 20 -25 20 -22 0 -25 -4 -25 -40 0 -33 -3 -40 -20 -40
-13 0 -20 7 -20 20 0 15 -7 20 -25 20 -20 0 -25 -5 -25 -25 0 -20 -5 -25 -25
-25 -20 0 -25 5 -25 25 0 23 -4 25 -45 25 -38 0 -45 3 -45 20 0 15 -7 20 -25
20 -18 0 -25 -5 -25 -20 0 -15 -7 -20 -25 -20 -20 0 -25 -5 -25 -25 0 -20 -5
-25 -25 -25 -20 0 -25 5 -25 25 0 23 -4 25 -45 25 -41 0 -45 -2 -45 -25 0 -24
-2 -25 -70 -25 -68 0 -70 1 -70 25 0 20 -5 25 -25 25 -20 0 -25 -5 -25 -25 0
-20 -5 -25 -25 -25 -20 0 -25 5 -25 25 0 24 -2 25 -70 25 -56 0 -70 3 -70 15
0 8 -9 15 -20 15 -11 0 -20 -7 -20 -15 0 -8 9 -15 20 -15 15 0 20 -7 20 -25 0
-18 -5 -25 -20 -25 -11 0 -20 7 -20 15 0 9 -9 15 -25 15 -18 0 -25 5 -25 20 0
13 -7 20 -20 20 -11 0 -20 -4 -20 -10 0 -5 -25 -10 -55 -10 -47 0 -55 -3 -55
-19 0 -13 -10 -20 -31 -25 -56 -11 -59 -9 -59 34 0 33 -3 40 -20 40 -11 0 -20
-7 -20 -15 0 -12 -20 -15 -120 -15 l-120 0 0 -25 c0 -20 -5 -25 -25 -25 -20 0
-25 5 -25 25 0 24 -2 25 -70 25 l-70 0 0 -45 c0 -41 -2 -45 -25 -45 -16 0 -25
-6 -25 -15 0 -8 -9 -15 -20 -15 -16 0 -20 7 -20 35 0 31 -3 35 -25 35 -20 0
-25 -5 -25 -25 0 -20 -5 -25 -25 -25 -14 0 -25 -4 -25 -10 0 -16 -37 -12 -44
5 -3 8 -17 15 -31 15 -18 0 -25 5 -25 20 0 13 -7 20 -20 20 -15 0 -20 -7 -20
-26 0 -25 -2 -26 -37 -20 -21 3 -53 6 -70 6 -26 0 -33 4 -33 20 0 19 -7 20
-95 20 -95 0 -95 0 -95 -25 0 -22 -4 -25 -40 -25 -36 0 -40 3 -40 25 l0 25
-105 0 c-98 0 -105 1 -105 20 0 14 7 20 23 20 27 0 41 10 50 34 6 15 4 17 -15
12 -13 -3 -31 -6 -40 -6 -10 0 -18 -7 -18 -15 0 -9 -9 -15 -25 -15 -20 0 -25
-5 -25 -25 0 -18 -5 -25 -20 -25 -15 0 -20 -7 -20 -25 0 -20 -5 -25 -25 -25
-20 0 -25 5 -25 25 0 23 -4 25 -45 25 -41 0 -45 -2 -45 -25 0 -20 -5 -25 -25
-25 -20 0 -25 5 -25 25 0 23 -3 25 -50 25 -47 0 -50 2 -50 25 0 21 -5 25 -30
25 -25 0 -30 -4 -30 -25 l0 -25 -120 0 c-113 0 -120 -1 -120 -20 0 -17 -7 -20
-40 -20 -33 0 -40 3 -40 20 0 19 -7 20 -115 20 -108 0 -115 -1 -115 -20 0 -15
-7 -20 -25 -20 -22 0 -25 4 -25 35 0 33 -2 35 -35 35 -34 0 -35 -1 -35 -40 0
-44 -5 -46 -82 -34 -28 5 -38 11 -38 25 0 15 -7 19 -35 19 -31 0 -35 -3 -35
-25 0 -22 -4 -25 -35 -25 -31 0 -35 3 -35 25 0 23 -3 25 -50 25 -38 0 -50 4
-50 15 0 10 -10 15 -30 15 -20 0 -30 -5 -30 -15 0 -9 -9 -15 -25 -15 -20 0
-25 -5 -25 -25 0 -25 -1 -25 -90 -25 -71 0 -92 3 -96 15 -7 17 -94 22 -94 5 0
-5 -9 -10 -19 -10 -33 0 -51 -11 -51 -31 0 -17 -8 -19 -85 -19 -50 0 -85 4
-85 10 0 6 -11 10 -25 10 -14 0 -25 5 -25 10 0 6 -20 10 -45 10 -38 0 -45 -3
-45 -20 0 -18 -7 -20 -75 -20 -68 0 -75 2 -75 20 0 17 -7 20 -45 20 -38 0 -45
-3 -45 -20 0 -17 -7 -20 -45 -20 -25 0 -45 -4 -45 -10 0 -5 -11 -10 -25 -10
-21 0 -25 5 -25 30 0 29 2 30 45 30 41 0 45 2 45 25 0 22 -4 25 -32 25 -18 0
-50 -3 -70 -6 -36 -6 -38 -8 -38 -45 l0 -39 -50 0 c-43 0 -50 3 -50 20 0 19
-7 20 -90 20 -83 0 -90 -1 -90 -20 0 -19 -7 -20 -100 -20 -93 0 -100 1 -100
20 0 17 -7 20 -45 20 -41 0 -45 2 -45 25 0 18 -5 25 -20 25 -17 0 -20 -7 -20
-45 0 -41 -2 -45 -25 -45 -18 0 -25 5 -25 20 0 15 -7 20 -25 20 -18 0 -25 -5
-25 -20 0 -17 -7 -20 -50 -20 -43 0 -50 3 -50 20 0 13 -7 20 -20 20 -13 0 -20
-7 -20 -20 0 -17 -7 -20 -50 -20 -43 0 -50 3 -50 20 0 17 -7 20 -45 20 -38 0
-45 -3 -45 -20 0 -17 -7 -20 -45 -20 -38 0 -45 3 -45 20 0 19 -7 20 -120 20
-113 0 -120 -1 -120 -20 0 -17 -7 -20 -45 -20 l-45 0 0 40 c0 36 -2 40 -25 40
-22 0 -25 -4 -25 -40 0 -38 -2 -40 -30 -40 -23 0 -30 4 -30 20 0 13 -7 20 -20
20 -11 0 -20 -4 -20 -8 0 -15 -115 -32 -213 -32 -97 0 -97 0 -97 -25 0 -14 -5
-25 -11 -25 -6 0 -8 -16 -5 -42 3 -24 2 -59 -2 -78 -9 -35 -9 -35 -17 23 -4
31 -5 68 -2 82 2 14 0 28 -4 31 -5 3 -9 34 -9 69 0 35 -4 75 -10 89 -8 23 -6
28 18 43 15 10 33 23 40 30 7 7 20 13 27 13 7 0 26 11 42 23 30 26 67 47 126
73 20 10 37 20 37 24 0 4 15 14 33 21 17 7 41 21 52 32 11 10 31 21 45 24 14
3 31 14 38 24 6 10 26 20 42 24 17 4 30 10 30 15 0 4 19 17 43 28 24 11 49 27
56 36 8 9 20 16 28 16 8 0 28 11 45 25 16 14 38 25 49 25 10 0 19 4 19 10 0 5
21 21 48 35 26 14 65 37 87 50 22 13 51 30 65 36 14 7 32 18 40 25 14 11 55
36 130 77 68 37 95 53 123 72 31 20 36 23 171 100 49 28 103 59 122 70 142 84
203 120 229 133 17 8 37 21 46 29 9 8 32 22 50 32 64 33 114 63 130 77 8 8 22
14 29 14 7 0 21 7 31 16 10 9 31 23 48 32 16 10 76 42 133 73 l103 57 495 6
c272 4 675 13 895 21 564 20 732 25 1315 35 283 6 623 14 755 19 132 6 398 13
590 16 193 4 379 10 415 16 36 5 68 9 73 9 4 0 7 7 7 15 0 20 -40 35 -90 35
-21 0 -114 11 -206 25 -92 14 -191 25 -219 25 -29 0 -104 9 -166 19 -63 11
-168 25 -234 31 -66 5 -154 17 -195 25 -41 7 -133 19 -205 25 -71 6 -164 18
-205 26 -41 8 -95 14 -120 14 -25 0 -101 9 -169 20 -68 11 -181 25 -250 31
-69 5 -144 14 -166 20 -22 5 -107 16 -190 24 -82 8 -195 21 -250 29 -91 14
-259 35 -645 81 -186 23 -200 26 -200 39 0 6 33 29 73 49 39 21 97 53 127 72
30 19 107 64 170 101 63 36 171 99 240 140 69 40 177 103 240 140 63 36 171
99 240 139 69 40 163 95 209 122 46 26 103 59 126 73 75 44 194 114 239 140
24 14 78 45 120 70 42 25 96 56 120 70 55 31 160 92 339 198 76 45 146 84 156
87 21 6 86 42 216 120 50 29 124 73 165 96 85 48 329 192 375 221 17 10 48 27
70 39 22 11 60 33 85 49 25 17 63 39 85 50 22 12 58 32 80 45 22 13 56 33 75
45 19 11 53 31 75 45 22 14 59 35 82 47 24 13 89 51 145 84 104 62 145 86 361
211 65 37 135 78 155 90 20 12 57 34 82 48 110 62 156 89 233 135 32 19 73 44
91 55 19 11 60 36 93 55 32 19 69 40 83 47 14 7 43 24 65 38 22 14 58 34 80
45 22 12 69 39 105 61 36 23 110 67 165 98 55 32 141 82 190 111 50 29 104 60
120 70 17 10 71 41 120 70 50 29 104 60 120 70 17 10 73 43 125 73 52 31 101
56 109 57 7 0 41 -17 75 -37z m9322 -5448 c9 -14 26 -25 38 -25 28 0 50 -15
42 -29 -9 -13 -68 -2 -79 15 -4 7 -23 18 -42 24 -19 6 -35 15 -35 19 0 30 55
27 76 -4z m132 -78 c7 -8 7 -17 -2 -30 -20 -26 -36 -20 -36 13 0 32 19 40 38
17z m-13038 -92 c0 -20 -5 -25 -25 -25 -20 0 -25 5 -25 25 0 20 5 25 25 25 20
0 25 -5 25 -25z m46 -233 c6 -4 16 -27 22 -52 5 -25 15 -58 21 -75 5 -16 17
-50 24 -75 8 -25 19 -58 25 -75 37 -109 62 -192 62 -203 0 -7 8 -31 19 -55 10
-23 26 -72 36 -109 9 -37 24 -73 33 -80 14 -10 90 -12 392 -8 206 3 383 3 393
1 28 -6 20 -24 -25 -59 -51 -39 -502 -362 -526 -377 -48 -28 -92 -70 -92 -87
0 -10 7 -33 17 -51 9 -18 22 -52 29 -77 7 -25 20 -65 29 -90 66 -191 148 -441
152 -467 6 -40 -14 -44 -55 -12 -29 22 -162 120 -283 207 -236 169 -286 202
-305 202 -12 0 -37 -12 -57 -27 -20 -16 -51 -38 -69 -51 -18 -13 -114 -82
-213 -153 -99 -72 -197 -141 -217 -155 -21 -13 -38 -29 -38 -35 0 -6 -10 -9
-22 -7 -31 4 -34 36 -9 88 11 22 22 55 26 73 3 18 14 52 24 77 24 60 59 163
76 225 17 64 43 138 67 196 11 25 18 54 16 65 -2 11 -29 32 -68 51 -36 19 -78
43 -95 56 -108 80 -188 137 -240 172 -33 22 -62 42 -65 45 -15 16 -109 80
-118 80 -18 0 -62 61 -62 86 l0 25 392 -2 c450 -1 414 -9 437 97 7 33 21 79
31 104 25 62 80 238 80 256 0 8 6 25 14 37 8 12 19 47 26 77 7 30 16 60 20 65
5 6 11 28 15 50 4 22 10 43 12 48 5 9 54 9 69 -1z m6988 -8 c9 -8 16 -26 16
-39 0 -14 6 -39 14 -57 17 -37 47 -131 75 -228 18 -64 26 -87 62 -185 10 -27
25 -79 34 -114 29 -113 -14 -103 437 -105 385 -1 393 -1 396 -21 3 -23 -39
-71 -88 -100 -19 -11 -44 -27 -56 -35 -11 -8 -38 -27 -60 -42 -21 -16 -55 -39
-74 -53 -19 -14 -51 -36 -70 -50 -19 -14 -49 -35 -66 -47 -17 -13 -44 -32 -60
-42 -16 -11 -33 -24 -39 -30 -5 -6 -38 -24 -72 -40 -34 -16 -64 -37 -66 -47
-3 -9 3 -34 13 -56 9 -21 31 -85 50 -143 18 -58 38 -118 45 -135 7 -16 18 -50
25 -75 6 -25 17 -58 25 -75 7 -16 16 -43 20 -60 4 -16 18 -58 32 -92 43 -104
16 -120 -77 -45 -32 26 -89 69 -127 95 -153 108 -341 243 -367 265 -43 33 -73
28 -143 -26 -34 -26 -94 -69 -133 -97 -40 -27 -87 -61 -105 -75 -18 -14 -66
-47 -105 -75 -39 -27 -96 -69 -126 -92 -29 -24 -61 -43 -69 -43 -23 0 -30 27
-15 58 16 34 113 314 139 402 29 98 50 160 72 209 11 23 17 50 14 60 -3 9 -47
45 -98 81 -50 35 -96 68 -102 72 -20 16 -85 64 -120 88 -20 14 -51 36 -70 50
-18 14 -64 45 -100 70 -81 54 -155 119 -155 136 0 13 46 28 59 19 5 -2 169 -5
366 -6 291 -1 359 1 369 12 7 8 21 43 30 79 9 36 23 81 31 100 8 19 19 53 24
75 11 49 47 155 72 213 11 23 19 49 19 57 0 21 51 178 62 193 14 17 43 15 62
-4z m-10442 -3622 c13 -13 22 -49 32 -139 8 -66 21 -161 30 -210 14 -79 27
-166 81 -523 9 -58 24 -167 35 -242 10 -75 23 -154 28 -175 6 -21 13 -67 16
-103 4 -36 15 -112 26 -170 10 -58 22 -134 25 -170 4 -36 13 -92 20 -125 7
-33 19 -107 25 -165 6 -58 18 -134 25 -170 8 -36 22 -123 30 -195 28 -221 55
-326 69 -264 4 13 13 71 21 129 16 115 41 278 80 525 14 88 33 207 41 265 8
58 23 152 34 210 10 58 21 132 25 165 3 33 15 103 25 155 10 52 21 124 25 160
4 36 13 90 20 120 7 30 16 87 20 125 4 39 17 133 30 210 29 171 71 441 80 513
4 28 14 61 23 73 17 20 23 20 792 19 426 0 778 -4 782 -8 5 -5 8 -996 8 -2203
l0 -2194 -21 -17 c-17 -15 -41 -18 -123 -18 -55 0 -143 -5 -194 -10 -51 -6
-204 -17 -340 -25 -206 -13 -248 -13 -259 -2 -11 11 -14 270 -13 1513 0 832
-4 1505 -9 1513 -16 25 -22 3 -66 -254 -9 -55 -25 -140 -35 -190 -11 -49 -26
-135 -36 -190 -17 -103 -40 -233 -68 -390 -9 -49 -23 -119 -31 -155 -8 -36
-22 -111 -30 -166 -8 -56 -22 -128 -30 -160 -8 -32 -15 -71 -15 -86 0 -16 -11
-79 -24 -141 -13 -61 -27 -139 -31 -172 -4 -33 -12 -71 -17 -84 -5 -14 -17
-79 -28 -145 -10 -67 -25 -155 -33 -196 -8 -41 -27 -142 -42 -225 -14 -82 -33
-179 -40 -215 -8 -36 -21 -112 -30 -170 -11 -75 -21 -111 -35 -124 -16 -16
-49 -22 -207 -37 -103 -9 -262 -22 -353 -28 -91 -7 -192 -16 -226 -22 -33 -6
-76 -9 -95 -7 -33 3 -34 4 -55 88 -12 47 -25 108 -29 135 -4 28 -17 102 -30
165 -46 229 -64 326 -75 399 -6 41 -13 78 -16 83 -3 4 -16 70 -30 146 -13 75
-31 173 -39 217 -8 44 -21 114 -30 155 -8 41 -22 116 -31 165 -35 199 -62 342
-72 380 -6 22 -13 67 -17 99 -4 33 -11 71 -16 84 -5 14 -16 72 -25 131 -8 58
-20 120 -25 138 -5 17 -19 84 -29 150 -11 65 -34 192 -50 283 -17 91 -35 192
-41 224 -12 73 -22 95 -35 75 -4 -8 -7 -518 -5 -1134 3 -1328 -5 -2010 -26
-2030 -7 -8 -32 -16 -56 -19 -73 -8 -449 -45 -522 -51 -38 -4 -95 -10 -125
-15 -136 -22 -186 -23 -205 -4 -18 18 -18 98 -12 2361 5 1849 9 2346 19 2362
7 11 21 21 33 23 11 2 355 2 764 1 704 -2 746 -3 763 -21z m4462 8 c148 -13
270 -47 405 -114 83 -41 122 -67 188 -130 46 -44 99 -102 117 -130 75 -118 86
-136 86 -146 0 -5 11 -33 24 -62 35 -75 70 -202 97 -348 21 -112 24 -153 23
-400 -1 -238 -4 -289 -22 -380 -11 -58 -24 -125 -28 -150 -3 -25 -15 -67 -25
-95 -11 -27 -19 -56 -19 -63 0 -27 -64 -158 -115 -236 -115 -176 -260 -270
-516 -332 -108 -26 -185 -31 -537 -38 -112 -2 -208 -8 -213 -13 -6 -6 -10
-196 -9 -494 1 -642 -10 -1195 -24 -1214 -8 -11 -47 -15 -156 -20 -80 -3 -264
-10 -410 -15 -146 -6 -299 -12 -340 -16 -43 -3 -81 -1 -90 5 -12 8 -14 274
-11 2043 2 1118 6 2103 10 2188 6 143 8 155 27 165 27 13 1376 9 1538 -5z
m-6434 -9 c6 -13 10 -172 10 -450 0 -479 3 -461 -68 -461 -379 -3 -904 -25
-930 -39 l-22 -12 0 -447 c0 -246 4 -453 8 -460 5 -7 20 -14 33 -15 22 -2 216
8 374 19 39 3 111 7 160 9 50 2 152 6 227 10 105 6 141 5 153 -5 13 -11 15
-71 15 -446 l0 -433 -22 -15 c-15 -11 -45 -16 -88 -16 -36 0 -135 -6 -220 -15
-182 -17 -461 -35 -543 -35 -44 0 -62 -5 -77 -20 -20 -20 -20 -31 -18 -558 l3
-537 119 2 c65 1 169 9 230 17 61 9 179 20 261 26 83 5 212 17 287 27 112 13
140 14 153 3 13 -11 15 -69 15 -461 l0 -449 -22 -14 c-13 -8 -64 -17 -118 -21
-52 -3 -138 -13 -190 -21 -52 -8 -156 -21 -230 -29 -209 -22 -395 -44 -505
-60 -55 -9 -164 -22 -243 -30 -79 -8 -162 -19 -185 -24 -23 -5 -91 -14 -152
-21 -60 -6 -162 -20 -225 -30 -181 -29 -214 -32 -233 -18 -16 12 -17 163 -17
2508 0 1372 0 2501 0 2508 0 7 10 17 23 22 12 5 452 9 1024 9 981 1 1003 1
1013 -18z m9140 9 c114 -10 297 -48 355 -74 17 -8 46 -19 65 -25 50 -16 143
-65 222 -117 72 -48 217 -195 249 -252 11 -21 26 -48 34 -62 59 -105 101 -248
120 -408 13 -113 15 -305 15 -1240 0 -1204 -3 -1270 -56 -1457 -72 -252 -233
-463 -443 -582 -108 -61 -177 -87 -326 -125 -110 -27 -138 -30 -342 -35 -214
-5 -356 3 -456 27 -296 71 -458 152 -610 306 -149 150 -239 329 -294 584 -17
80 -18 163 -18 1330 l0 1245 23 100 c48 210 122 353 247 480 109 111 199 168
350 224 119 44 230 71 325 80 125 12 408 12 540 1z m6692 -45 c117 -14 310
-57 333 -75 6 -4 27 -13 48 -20 117 -37 293 -180 390 -316 148 -208 234 -571
254 -1081 5 -111 3 -122 -13 -131 -19 -9 -730 2 -881 14 -118 9 -114 -2 -117
269 -5 341 -31 430 -141 482 -92 42 -219 21 -293 -50 -86 -82 -82 -14 -82
-1335 0 -715 4 -1202 10 -1265 17 -169 81 -265 194 -294 67 -17 121 -16 175 5
65 25 99 74 127 182 23 89 24 104 24 466 0 345 -1 374 -17 382 -10 5 -67 12
-127 15 -90 4 -112 8 -123 23 -20 27 -19 757 1 773 17 14 193 10 801 -21 281
-14 424 -25 433 -32 10 -10 13 -212 17 -977 2 -530 7 -1128 10 -1329 4 -253 3
-375 -5 -394 -10 -28 -12 -29 -68 -22 -31 3 -118 11 -192 17 -148 12 -167 20
-190 82 -7 18 -34 82 -61 143 -27 61 -49 118 -49 127 0 19 -27 36 -49 30 -9
-3 -28 -22 -43 -43 -70 -100 -246 -210 -403 -251 -78 -20 -114 -24 -270 -24
-149 0 -199 4 -292 23 -405 83 -663 295 -808 664 -40 102 -62 188 -93 353
l-27 150 0 1245 0 1245 27 110 c36 146 67 234 116 327 104 198 283 358 497
444 233 93 568 126 887 89z m-4514 -19 c189 -3 297 -8 306 -15 10 -9 14 -352
20 -1791 4 -979 9 -1787 12 -1794 8 -21 52 -25 494 -36 228 -6 439 -13 468
-16 96 -10 92 8 92 -387 0 -315 -1 -345 -17 -359 -16 -14 -45 -15 -223 -7
-113 4 -275 13 -360 19 -85 6 -409 21 -720 32 -615 22 -655 24 -717 26 -23 1
-49 9 -57 18 -14 14 -16 224 -16 2159 0 2031 1 2145 18 2154 11 7 87 9 212 6
107 -3 327 -7 488 -9z m2157 -12 c259 -3 442 -10 446 -15 6 -11 19 -2442 19
-3656 0 -760 0 -763 -21 -784 -14 -14 -28 -19 -44 -15 -25 6 -242 20 -555 36
-268 13 -347 20 -365 34 -14 10 -17 240 -22 2186 -5 1635 -3 2181 5 2197 13
23 43 33 77 27 11 -2 218 -7 460 -10z m5847 -4 c24 0 42 -135 93 -670 14 -151
35 -354 45 -450 11 -96 22 -222 26 -280 3 -58 14 -168 24 -245 10 -77 21 -187
25 -245 3 -58 14 -172 24 -255 11 -82 22 -196 25 -253 3 -56 13 -150 21 -210
8 -59 19 -174 24 -257 6 -82 17 -199 25 -260 8 -60 18 -153 21 -205 4 -52 13
-156 21 -230 8 -74 19 -184 24 -245 9 -112 37 -393 65 -675 9 -85 23 -231 30
-325 8 -93 17 -180 20 -191 3 -13 -3 -31 -13 -44 l-18 -22 -100 16 c-140 24
-202 32 -641 86 -84 10 -161 21 -172 25 -25 8 -41 55 -41 119 0 29 -6 105 -14
171 -8 66 -20 201 -27 299 -17 237 0 220 -234 241 -99 8 -207 20 -240 25 -83
14 -141 12 -153 -3 -6 -7 -16 -91 -22 -187 -9 -147 -24 -328 -44 -514 -3 -21
-9 -43 -14 -48 -5 -5 -44 -5 -98 2 -284 33 -442 51 -549 60 -177 16 -318 39
-333 54 -11 11 -11 31 2 117 8 57 20 171 26 253 6 82 15 170 20 195 6 25 14
107 20 181 5 74 19 212 30 305 24 212 45 411 70 675 11 113 24 232 29 265 6
33 15 125 21 205 6 80 16 179 21 220 9 71 20 178 69 665 11 116 24 235 30 265
5 30 14 123 20 205 6 83 17 195 25 250 7 55 17 145 21 200 3 55 12 150 20 210
8 61 21 191 30 290 16 188 23 211 68 217 14 2 1487 0 1678 -2z m-5752 -5580
c206 -6 517 -16 690 -24 173 -8 466 -17 650 -21 184 -3 470 -13 635 -20 165
-8 388 -17 495 -20 107 -3 335 -10 505 -16 171 -6 362 -12 425 -14 63 -2 225
-8 360 -14 135 -6 409 -16 610 -22 378 -11 534 -20 544 -30 5 -4 9 -903 6
-1365 0 -15 -10 -25 -32 -34 -18 -7 -51 -21 -73 -31 -22 -10 -98 -43 -170 -74
-71 -31 -148 -65 -171 -76 -23 -10 -45 -19 -50 -19 -5 0 -34 -12 -64 -26 -30
-14 -78 -37 -106 -50 -28 -13 -56 -24 -63 -24 -7 0 -29 -9 -49 -19 -36 -19
-197 -90 -332 -146 -36 -15 -83 -35 -105 -45 -62 -27 -149 -64 -280 -120 -66
-28 -138 -59 -160 -70 -22 -11 -44 -20 -49 -20 -4 0 -29 -11 -55 -24 -26 -12
-65 -29 -86 -36 -22 -7 -45 -17 -52 -22 -32 -26 -78 -27 -187 -7 -61 11 -154
26 -206 34 -52 7 -115 18 -140 23 -25 6 -83 16 -130 22 -47 6 -114 17 -150 25
-36 7 -103 19 -150 24 -47 6 -121 18 -165 26 -114 21 -250 43 -399 66 -70 10
-132 21 -136 24 -4 3 -59 12 -121 20 -63 8 -145 22 -184 30 -38 8 -117 22
-175 30 -136 20 -205 31 -370 60 -74 13 -160 27 -190 30 -30 4 -71 11 -90 16
-19 5 -96 18 -171 29 -75 11 -143 22 -150 25 -13 5 -99 19 -339 55 -41 7 -109
18 -150 27 -41 8 -135 23 -209 34 -73 11 -137 21 -141 24 -4 2 -56 11 -116 20
-60 8 -147 22 -194 30 -47 8 -148 26 -225 40 -77 13 -165 27 -195 30 -30 4
-80 13 -110 20 -30 8 -110 21 -178 30 -67 9 -133 20 -145 24 -13 5 -54 12 -92
16 -39 4 -110 15 -160 25 -49 10 -117 21 -150 25 -33 4 -87 13 -120 21 -33 7
-111 20 -174 29 -62 8 -117 17 -121 20 -4 2 -54 11 -111 20 -99 14 -204 32
-454 75 -60 11 -146 24 -190 30 -44 6 -93 15 -110 20 -16 5 -85 16 -153 25
-67 9 -133 20 -146 25 -13 5 -53 12 -88 16 -34 3 -106 14 -159 25 -52 10 -135
23 -184 29 -49 6 -93 14 -98 17 -5 3 -76 16 -156 29 -80 12 -216 34 -301 48
-85 13 -186 30 -225 36 -38 6 -117 20 -175 31 -58 10 -141 24 -185 29 -44 6
-93 15 -108 20 -16 5 -83 17 -150 25 -67 9 -138 20 -157 25 -19 5 -69 14 -110
20 -87 11 -268 42 -425 70 -60 11 -153 27 -205 35 -52 8 -120 20 -150 25 -99
18 -242 41 -374 61 -70 10 -131 21 -135 24 -4 2 -72 13 -150 25 -79 11 -147
22 -151 25 -4 3 -59 12 -121 20 -63 9 -148 22 -189 30 -95 19 -231 41 -387 65
-67 10 -126 20 -130 23 -4 3 -60 12 -123 21 -63 9 -151 23 -195 31 -44 8 -123
19 -175 26 -102 12 -139 24 -122 41 12 12 190 23 577 38 160 6 416 17 570 25
154 8 419 19 589 25 170 6 409 17 530 25 122 7 318 16 436 19 308 8 470 15
770 31 146 8 398 19 560 25 162 6 405 17 540 25 135 8 351 17 480 20 129 3
334 12 455 20 121 8 294 17 385 20 322 10 478 16 730 30 140 8 390 19 555 25
165 6 379 16 475 22 307 19 839 35 1010 31 91 -2 334 -8 540 -13z m-14175
-270 c22 -7 81 -16 130 -20 50 -4 136 -17 192 -29 55 -11 127 -21 160 -21 32
0 83 -7 113 -15 30 -9 114 -22 185 -30 72 -9 157 -22 191 -30 33 -8 82 -15
110 -16 27 0 83 -7 124 -14 41 -8 113 -20 160 -26 47 -5 132 -19 190 -29 58
-11 137 -22 175 -25 39 -4 97 -13 130 -20 33 -8 107 -19 165 -25 58 -7 132
-18 165 -25 33 -7 89 -16 125 -20 36 -4 101 -13 145 -21 44 -8 127 -21 185
-29 58 -8 143 -21 190 -29 47 -9 119 -20 160 -25 41 -5 118 -16 170 -24 127
-21 288 -46 380 -58 41 -5 122 -18 180 -29 58 -10 134 -21 170 -25 36 -4 92
-13 126 -21 34 -7 108 -19 165 -25 57 -5 118 -14 134 -19 17 -5 84 -16 150
-25 66 -8 158 -22 205 -29 222 -38 400 -66 455 -71 33 -4 87 -13 120 -20 33
-8 107 -19 165 -25 58 -7 122 -16 144 -22 21 -5 84 -16 140 -23 154 -21 361
-52 456 -70 47 -9 132 -22 190 -30 102 -14 178 -25 425 -65 66 -11 145 -22
175 -25 30 -4 87 -13 125 -21 39 -8 120 -21 180 -29 61 -8 151 -21 200 -29 94
-16 237 -38 390 -61 303 -46 368 -56 445 -70 47 -9 132 -22 190 -30 58 -8 148
-21 200 -30 161 -26 343 -54 395 -61 28 -3 95 -14 150 -24 55 -11 129 -22 165
-25 36 -4 94 -13 130 -21 36 -9 103 -19 150 -24 47 -5 141 -19 210 -30 304
-51 360 -60 438 -70 46 -5 100 -14 120 -19 20 -5 80 -14 132 -21 52 -6 142
-19 200 -30 58 -10 186 -31 285 -45 99 -15 227 -35 285 -45 58 -10 132 -21
165 -25 33 -3 107 -14 165 -24 58 -11 186 -32 285 -46 99 -15 242 -38 318 -51
77 -13 153 -24 170 -24 18 0 75 -9 127 -20 52 -10 147 -26 210 -35 63 -8 138
-19 165 -25 28 -5 131 -21 230 -35 99 -15 227 -35 285 -46 58 -10 132 -21 165
-24 33 -4 110 -15 170 -25 100 -18 152 -26 380 -60 39 -6 122 -20 185 -31 63
-11 156 -24 205 -30 50 -5 106 -14 125 -19 19 -5 79 -14 134 -20 101 -11 138
-21 117 -34 -6 -4 -79 -13 -163 -21 -229 -22 -441 -42 -658 -64 -107 -11 -244
-25 -305 -31 -60 -5 -148 -14 -195 -19 -47 -6 -152 -15 -234 -21 -82 -6 -172
-15 -199 -21 -28 -5 -141 -16 -252 -25 -110 -8 -225 -19 -255 -24 -30 -5 -142
-17 -249 -25 -107 -9 -197 -17 -201 -20 -3 -2 -98 -11 -211 -20 -112 -9 -229
-20 -259 -26 -30 -5 -145 -16 -255 -25 -110 -8 -225 -19 -255 -24 -30 -5 -135
-16 -232 -25 -97 -8 -235 -22 -305 -30 -70 -7 -175 -17 -233 -20 -58 -4 -123
-11 -145 -16 -22 -4 -139 -15 -260 -24 -121 -9 -240 -20 -265 -25 -25 -5 -106
-14 -180 -20 -74 -6 -189 -17 -255 -25 -66 -8 -181 -19 -255 -25 -74 -6 -187
-17 -250 -25 -63 -8 -180 -19 -260 -25 -80 -6 -178 -15 -217 -21 -40 -6 -170
-19 -290 -29 -120 -11 -285 -26 -368 -34 -82 -9 -269 -27 -415 -41 -146 -14
-321 -32 -390 -40 -69 -8 -195 -20 -280 -26 -85 -5 -180 -15 -210 -20 -30 -5
-143 -16 -250 -24 -107 -9 -242 -22 -300 -29 -58 -8 -150 -17 -205 -21 -55 -3
-149 -13 -210 -20 -60 -8 -180 -19 -265 -25 -85 -6 -202 -17 -260 -25 -58 -8
-155 -17 -216 -21 -105 -6 -112 -5 -162 20 -28 14 -57 26 -63 26 -11 0 -27 6
-152 64 -31 14 -63 26 -70 26 -7 0 -30 9 -52 20 -21 11 -54 25 -74 31 -20 6
-45 17 -56 24 -11 6 -38 18 -60 25 -22 7 -49 19 -60 25 -11 7 -38 18 -60 25
-22 7 -44 16 -50 20 -5 4 -28 13 -50 20 -22 7 -51 19 -65 26 -14 7 -65 29
-115 48 -83 32 -182 73 -230 96 -11 6 -38 16 -60 24 -22 8 -74 29 -115 47 -99
41 -185 77 -240 99 -129 51 -259 104 -295 120 -67 31 -162 70 -169 70 -4 0
-32 11 -62 25 -30 14 -57 25 -61 25 -3 0 -24 9 -47 20 -72 34 -184 80 -195 80
-6 0 -25 9 -43 20 -18 11 -40 20 -48 20 -8 0 -37 12 -65 25 -27 14 -57 25 -65
25 -9 0 -24 6 -35 13 -11 8 -63 31 -115 51 -52 21 -113 46 -135 56 -22 10 -62
27 -90 39 -73 29 -160 66 -242 100 -39 17 -75 31 -80 31 -4 0 -26 9 -48 20
-22 11 -74 33 -115 50 -153 63 -176 73 -228 96 -29 13 -60 24 -68 24 -9 0 -28
9 -43 19 -15 11 -40 23 -57 27 -16 4 -45 15 -64 24 -82 41 -152 70 -169 70
-10 0 -30 9 -44 20 -14 11 -40 23 -59 27 -18 3 -44 14 -58 23 -14 10 -44 23
-67 29 -23 6 -48 17 -55 25 -7 7 -30 15 -51 19 -20 3 -49 15 -64 26 -14 12
-34 21 -44 21 -58 0 -135 58 -110 83 15 15 15 1264 1 1302 -19 49 -1 53 95 25z"/>
<path d="M15575 21017 c-4 -10 -5 -21 -1 -24 10 -10 18 4 13 24 -4 17 -4 17
-12 0z"/>
<path d="M15305 20945 c-4 -16 -8 -35 -10 -42 -2 -7 0 -15 5 -18 15 -9 31 42
21 67 -9 22 -9 22 -16 -7z"/>
<path d="M15614 20889 c3 -16 13 -40 21 -52 l15 -21 0 21 c0 44 -13 83 -27 83
-12 0 -14 -7 -9 -31z"/>
<path d="M22720 20465 c0 -18 5 -25 20 -25 15 0 20 7 20 25 0 18 -5 25 -20 25
-15 0 -20 -7 -20 -25z"/>
<path d="M22050 20440 c0 -38 2 -40 30 -40 28 0 30 2 30 40 0 38 -2 40 -30 40
-28 0 -30 -2 -30 -40z"/>
<path d="M22810 20460 c0 -16 7 -20 30 -20 23 0 30 4 30 20 0 16 -7 20 -30 20
-23 0 -30 -4 -30 -20z"/>
<path d="M20100 20420 c0 -13 7 -20 20 -20 13 0 20 7 20 20 0 13 -7 20 -20 20
-13 0 -20 -7 -20 -20z"/>
<path d="M23430 20420 c0 -13 7 -20 20 -20 13 0 20 7 20 20 0 13 -7 20 -20 20
-13 0 -20 -7 -20 -20z"/>
<path d="M18680 20413 c0 -9 17 -13 65 -13 l65 0 0 -30 c0 -25 4 -30 25 -30
23 0 25 4 25 40 0 45 10 41 -112 45 -51 1 -68 -1 -68 -12z"/>
<path d="M19150 20410 c0 -5 9 -10 20 -10 11 0 20 5 20 10 0 6 -9 10 -20 10
-11 0 -20 -4 -20 -10z"/>
<path d="M16920 20365 c0 -20 5 -25 25 -25 20 0 25 5 25 25 0 20 -5 25 -25 25
-20 0 -25 -5 -25 -25z"/>
<path d="M18200 20365 c0 -20 5 -25 25 -25 20 0 25 5 25 25 0 20 -5 25 -25 25
-20 0 -25 -5 -25 -25z"/>
<path d="M13590 20315 c0 -20 5 -25 25 -25 20 0 25 5 25 25 0 20 -5 25 -25 25
-20 0 -25 -5 -25 -25z"/>
<path d="M13780 20315 c0 -18 5 -25 20 -25 15 0 20 7 20 25 0 18 -5 25 -20 25
-15 0 -20 -7 -20 -25z"/>
<path d="M14200 20320 c0 -17 7 -20 50 -20 43 0 50 3 50 20 0 17 -7 20 -50 20
-43 0 -50 -3 -50 -20z"/>
<path d="M14490 20320 c0 -13 7 -20 20 -20 13 0 20 7 20 20 0 13 -7 20 -20 20
-13 0 -20 -7 -20 -20z"/>
<path d="M16520 20320 c0 -16 7 -20 35 -20 28 0 35 4 35 20 0 16 -7 20 -35 20
-28 0 -35 -4 -35 -20z"/>
<path d="M10420 20270 c0 -13 7 -20 20 -20 13 0 20 7 20 20 0 13 -7 20 -20 20
-13 0 -20 -7 -20 -20z"/>
<path d="M10660 20270 c0 -18 7 -20 70 -20 63 0 70 2 70 20 0 18 -7 20 -70 20
-63 0 -70 -2 -70 -20z"/>
<path d="M10230 20260 c0 -15 6 -20 28 -19 16 1 20 3 10 6 -10 2 -18 11 -18
19 0 8 -4 14 -10 14 -5 0 -10 -9 -10 -20z"/>
<path d="M10330 20265 c0 -8 9 -15 20 -15 11 0 20 7 20 15 0 8 -9 15 -20 15
-11 0 -20 -7 -20 -15z"/>
<path d="M11320 20265 c0 -9 -9 -15 -25 -15 -20 0 -25 -5 -25 -25 0 -20 5 -25
25 -25 20 0 25 5 25 26 0 25 1 26 45 20 41 -7 45 -5 45 13 0 18 -6 21 -45 21
-33 0 -45 -4 -45 -15z"/>
<path d="M7270 20225 c0 -20 5 -25 25 -25 20 0 25 5 25 25 0 20 -5 25 -25 25
-20 0 -25 -5 -25 -25z"/>
<path d="M7470 20225 c0 -21 -5 -25 -30 -25 -25 0 -30 -4 -30 -25 0 -39 58
-33 73 8 4 12 17 17 42 17 24 0 35 4 35 15 0 9 -9 15 -25 15 -14 0 -25 5 -25
10 0 6 -9 10 -20 10 -15 0 -20 -7 -20 -25z"/>
<path d="M8120 20240 c0 -5 7 -10 15 -10 8 0 15 -7 15 -15 0 -8 9 -15 20 -15
23 0 26 16 6 36 -17 16 -56 19 -56 4z"/>
<path d="M8550 20225 c0 -20 -5 -25 -25 -25 -20 0 -25 -5 -25 -25 0 -20 5 -25
25 -25 20 0 25 5 25 25 0 23 3 25 50 25 47 0 50 2 50 25 0 23 -3 25 -50 25
-47 0 -50 -2 -50 -25z"/>
<path d="M8860 20225 c0 -14 5 -25 10 -25 6 0 10 11 10 25 0 14 -4 25 -10 25
-5 0 -10 -11 -10 -25z"/>
<path d="M9328 20236 c-26 -19 -22 -36 7 -36 20 0 25 5 25 25 0 28 -7 30 -32
11z"/>
<path d="M7130 20220 c0 -13 -7 -20 -20 -20 -11 0 -20 7 -20 15 0 10 -10 15
-30 15 -20 0 -30 -5 -30 -15 0 -10 10 -15 30 -15 25 0 30 -4 30 -25 0 -18 5
-25 20 -25 15 0 20 7 20 25 0 20 5 25 25 25 18 0 25 5 25 20 0 15 -7 20 -25
20 -18 0 -25 -5 -25 -20z"/>
<path d="M7700 20215 c0 -8 9 -15 20 -15 11 0 20 7 20 15 0 8 -9 15 -20 15
-11 0 -20 -7 -20 -15z"/>
<path d="M8030 20215 c0 -8 9 -15 20 -15 11 0 20 7 20 15 0 8 -9 15 -20 15
-11 0 -20 -7 -20 -15z"/>
<path d="M8740 20215 c0 -10 11 -15 35 -15 24 0 35 5 35 15 0 10 -11 15 -35
15 -24 0 -35 -5 -35 -15z"/>
<path d="M6040 20175 c0 -20 5 -25 25 -25 20 0 25 5 25 25 0 20 -5 25 -25 25
-20 0 -25 -5 -25 -25z"/>
<path d="M6140 20175 c0 -18 5 -25 20 -25 15 0 20 7 20 25 0 18 -5 25 -20 25
-15 0 -20 -7 -20 -25z"/>
<path d="M12412 15528 c-10 -12 -12 -130 -13 -514 0 -497 0 -499 21 -516 24
-19 62 -18 185 8 190 40 255 171 255 507 0 239 -41 392 -122 456 -44 36 -131
61 -228 68 -69 5 -88 3 -98 -9z"/>
<path d="M15323 15510 c-53 -24 -103 -92 -120 -163 -19 -80 -18 -2293 1 -2399
20 -113 72 -177 161 -199 128 -31 236 18 265 120 41 145 41 149 37 1322 l-3
1124 -22 66 c-24 73 -62 116 -119 136 -54 18 -150 15 -200 -7z"/>
<path d="M24946 15384 c-3 -9 -6 -43 -6 -77 0 -34 -5 -102 -10 -152 -6 -49
-17 -196 -24 -325 -8 -129 -22 -316 -30 -415 -15 -174 -37 -445 -57 -725 -9
-129 -30 -386 -49 -610 -7 -79 -6 -108 3 -116 7 -6 104 -21 216 -33 258 -29
241 -39 218 136 -10 71 -24 218 -32 328 -8 110 -19 232 -25 270 -5 39 -17 153
-25 255 -8 102 -21 255 -29 340 -8 85 -19 207 -25 270 -6 63 -17 192 -25 285
-9 94 -23 253 -32 355 -8 102 -17 195 -20 208 -5 26 -39 30 -48 6z"/>
<path d="M5877 10324 c-4 -4 -7 -292 -7 -639 0 -494 3 -635 13 -642 6 -6 31
-13 54 -16 23 -3 50 -12 58 -21 9 -9 25 -16 36 -16 23 0 60 -18 74 -36 6 -7
31 -16 56 -19 35 -5 50 -3 62 9 8 9 20 16 25 16 8 0 22 53 22 88 0 6 -9 12
-20 12 -18 0 -20 7 -20 70 0 62 2 70 19 70 26 0 30 24 24 140 -5 89 -8 100
-24 100 -16 0 -19 8 -19 45 0 31 4 45 14 45 8 0 16 15 20 38 9 56 8 62 -14 62
-18 0 -20 7 -20 70 0 40 -4 70 -10 70 -19 0 -11 62 12 81 11 11 25 19 30 19 4
0 8 20 8 45 0 38 -3 45 -20 45 -13 0 -20 7 -20 20 0 11 -4 20 -10 20 -5 0 -10
11 -10 25 0 14 5 25 10 25 6 0 10 11 10 25 0 20 -5 25 -25 25 -24 0 -25 2 -25
70 0 56 3 70 15 70 11 0 15 -12 15 -45 0 -25 5 -45 10 -45 6 0 10 24 10 54 0
56 -8 66 -51 66 -10 0 -19 6 -19 14 0 21 -54 34 -145 35 -44 0 -91 3 -105 6
-14 3 -29 3 -33 -1z"/>
<path d="M6273 10243 c9 -2 25 -2 35 0 9 3 1 5 -18 5 -19 0 -27 -2 -17 -5z"/>
<path d="M6290 8943 c-16 -7 -39 -33 -40 -45 0 -5 18 -8 40 -8 37 0 39 1 37
30 -2 30 -8 34 -37 23z"/>
</g>
</svg>
