<?xml version="1.0" encoding="utf-8"?>
<!-- Generator: Adobe Illustrator 16.0.0, SVG Export Plug-In . SVG Version: 6.00 Build 0)  -->
<!DOCTYPE svg PUBLIC "-//W3C//DTD SVG 1.1//EN" "http://www.w3.org/Graphics/SVG/1.1/DTD/svg11.dtd">
<svg version="1.1" id="Layer_1" xmlns="http://www.w3.org/2000/svg" xmlns:xlink="http://www.w3.org/1999/xlink" x="0px" y="0px"
	 width="713.965px" height="650.968px" viewBox="0 0 713.965 650.968" enable-background="new 0 0 713.965 650.968"
	 xml:space="preserve">
<polygon fill="#211F20" points="76.286,179.726 357.161,13.226 638.287,180.059 638.953,280.393 685.287,279.059 685.287,466.393 
	638.62,460.393 638.286,512.727 358.251,634.393 75.619,512.727 75.775,461.393 28.786,465.393 28.786,279.643 75.786,280.393 "/>
<g>
	<polygon fill="#FFFFFF" points="112.356,432.17 54.229,439.3 53.981,299.873 110.131,299.873 110.378,324.325 82.345,325.201 
		82.427,352.661 109.308,351.268 109.265,376.103 82.551,378.071 82.551,409.301 112.356,407.087 	"/>
	<path fill="#FFFFFF" d="M122.498,431.32V299.873h42.051l11.656,72.209l2.288,0.031l11.779-72.241h42.545v123.049l-25.724,1.15
		l0.248-85.82l-1.731,0.084l-15.584,87.26l-24.737,1.607l-16.076-87.057c0,0-1.02-2.039-1.979-0.309l-0.331,89.012L122.498,431.32z"
		/>
	<path fill="#FFFFFF" d="M287.978,299.873h-41.803v121.811l27.21-0.988v-48.799l16.983-0.041
		c21.438-0.658,23.499-24.049,23.499-24.049l0.443-9.83C316.786,299.873,287.978,299.873,287.978,299.873z M286.493,342.371
		c0,0-0.246,7.039-5.565,8.152c-5.317,1.111-7.419,0-7.419,0v-29.278c0,0,5.065-0.229,6.733,0c2.181,0.298,5.757,1.606,6.251,6.177
		C286.99,331.993,286.493,342.371,286.493,342.371z"/>
	<path fill="#FFFFFF" d="M362.258,299.791h-9.721c-16.601,0-29.352,10.043-29.352,26.134v65.884
		c0,16.09,13.457,29.135,30.057,29.135h9.728c16.6,0,30.346-13.045,30.346-29.135v-65.884
		C393.315,309.833,378.856,299.791,362.258,299.791z M364.164,393.516c0,3.547-2.88,6.424-6.432,6.424s-6.432-2.877-6.432-6.424
		v-65.948c0-3.548,2.88-6.424,6.432-6.424s6.432,2.876,6.432,6.424V393.516z"/>
	<polygon fill="#FFFFFF" points="405.308,301.52 404.977,421.93 462.197,424.07 462.197,404.141 432.845,402.908 432.742,301.52 	
		"/>
	<polygon fill="#FFFFFF" points="469.949,425.061 496.167,425.885 496.249,302.179 469.372,302.179 	"/>
	<path fill="#FFFFFF" d="M550.091,377.457l-7.11-0.248v-22.154l33.825,1.318l0.824,76.436l-10.883-0.822l-4.947-10.633l-2.146,0.123
		c0,0-6.266,10.832-23.087,8.527c-16.818-2.307-26.715-11.037-28.856-31.133v-71.16c0,0,2.474-24.05,26.386-26.191
		c0,0,5.892-0.252,7.846-0.252c2.045,0,8.148,0.252,8.148,0.252s13.522,0.164,20.283,11.365c6.761,11.202,7.256,33.273,7.256,33.273
		l-27.21-0.822l-0.658-15.319c0,0-1.32-5.93-6.513-5.93c-5.195,0-8.164,1.235-8.412,7.906c-0.247,6.671-0.082,61.937-0.082,61.937
		s-0.576,12.6,7.917,13.053c8.491,0.453,7.255-7.66,7.255-7.66L550.091,377.457z"/>
	<path fill="#FFFFFF" d="M646.065,302.179l-46.998-0.659l-13.853,132.107l26.549,2.881l2.31-21.742l17.48,1.648l2.226,23.059
		l26.219,3.707L646.065,302.179z M616.3,393.846l4.709-69.265l1.888-0.139l6.596,69.982L616.3,393.846z"/>
</g>
<linearGradient id="SVGID_1_" gradientUnits="userSpaceOnUse" x1="89.9531" y1="509.6426" x2="511.0361" y2="509.6426">
	<stop  offset="0" style="stop-color:#B37925"/>
	<stop  offset="0.2031" style="stop-color:#D99727"/>
	<stop  offset="0.414" style="stop-color:#FDB328"/>
	<stop  offset="0.9924" style="stop-color:#FFB528"/>
	<stop  offset="1" style="stop-color:#FFB528"/>
</linearGradient>
<polygon fill="url(#SVGID_1_)" points="90.537,462.227 89.953,502.726 222.619,557.06 511.036,527.727 "/>
<linearGradient id="SVGID_2_" gradientUnits="userSpaceOnUse" x1="227.7861" y1="489.6875" x2="623.9531" y2="489.6875">
	<stop  offset="0" style="stop-color:#FFB528"/>
	<stop  offset="0.0076" style="stop-color:#FFB528"/>
	<stop  offset="0.586" style="stop-color:#FDB328"/>
	<stop  offset="0.7356" style="stop-color:#E7A127"/>
	<stop  offset="1" style="stop-color:#C38325"/>
</linearGradient>
<polygon fill="url(#SVGID_2_)" points="568.787,523.731 622.606,500.226 623.953,460.059 464.661,455.643 227.786,465.518 
	227.786,467.143 "/>
<linearGradient id="SVGID_3_" gradientUnits="userSpaceOnUse" x1="357.1611" y1="277.3926" x2="357.1611" y2="35.4551">
	<stop  offset="0" style="stop-color:#3D599F"/>
	<stop  offset="1" style="stop-color:#9BD5F7"/>
</linearGradient>
<polygon fill="url(#SVGID_3_)" points="91.286,277.393 91.286,190.059 157.203,151.309 274.224,147.893 185.119,135.559 
	357.062,35.455 492.161,114.393 459.474,117.143 515.224,127.205 623.036,189.643 623.036,276.393 358.251,202.224 "/>
<polygon fill="#FFFFFF" points="453.705,197.994 460.913,220.178 484.238,220.178 465.367,233.888 472.575,256.071 453.705,242.361 
	434.835,256.071 442.043,233.888 423.173,220.178 446.497,220.178 "/>
<polygon fill="#FFFFFF" points="260.455,197.994 267.663,220.178 290.988,220.178 272.117,233.888 279.325,256.071 260.455,242.361 
	241.585,256.071 248.793,233.888 229.923,220.178 253.247,220.178 "/>
<polygon fill="#FFFFFF" points="359.027,161.457 369.148,192.601 401.893,192.601 375.4,211.848 385.521,242.991 359.027,223.744 
	332.534,242.991 342.654,211.848 316.162,192.601 348.908,192.601 "/>
</svg>
